<svg width="34" height="34" viewBox="0 0 34 34" fill="none" xmlns="http://www.w3.org/2000/svg">
<mask id="path-1-inside-1_1321_2996" fill="white">
<path fill-rule="evenodd" clip-rule="evenodd" d="M23.5732 1C23.5732 0.447715 23.1255 0 22.5732 0H11.8799C11.3276 0 10.8799 0.447714 10.8799 0.999999V9.87976C10.8799 10.432 10.4322 10.8798 9.87987 10.8798H1C0.447715 10.8798 0 11.3275 0 11.8798V22.5731C0 23.1254 0.447714 23.5731 0.999999 23.5731H9.87987C10.4322 23.5731 10.8799 24.0208 10.8799 24.5731V33C10.8799 33.5523 11.3276 34 11.8799 34H22.5732C23.1255 34 23.5732 33.5523 23.5732 33V24.5731C23.5732 24.0208 24.0209 23.5731 24.5732 23.5731H33C33.5523 23.5731 34 23.1254 34 22.5731V11.8798C34 11.3275 33.5523 10.8798 33 10.8798H24.5732C24.0209 10.8798 23.5732 10.432 23.5732 9.87976V1Z"/>
</mask>
<path d="M11.8799 2H22.5732V-2H11.8799V2ZM12.8799 9.87976V0.999999H8.87987V9.87976H12.8799ZM1 12.8798H9.87987V8.87976H1V12.8798ZM2 22.5731V11.8798H-2V22.5731H2ZM9.87987 21.5731H0.999999V25.5731H9.87987V21.5731ZM12.8799 33V24.5731H8.87987V33H12.8799ZM22.5732 32H11.8799V36H22.5732V32ZM21.5732 24.5731V33H25.5732V24.5731H21.5732ZM33 21.5731H24.5732V25.5731H33V21.5731ZM32 11.8798V22.5731H36V11.8798H32ZM24.5732 12.8798H33V8.87976H24.5732V12.8798ZM21.5732 1V9.87976H25.5732V1H21.5732ZM24.5732 8.87976C25.1255 8.87976 25.5732 9.32747 25.5732 9.87976H21.5732C21.5732 11.5366 22.9164 12.8798 24.5732 12.8798V8.87976ZM36 11.8798C36 10.2229 34.6569 8.87976 33 8.87976V12.8798C32.4477 12.8798 32 12.432 32 11.8798H36ZM33 25.5731C34.6569 25.5731 36 24.2299 36 22.5731H32C32 22.0208 32.4477 21.5731 33 21.5731V25.5731ZM25.5732 24.5731C25.5732 25.1254 25.1255 25.5731 24.5732 25.5731V21.5731C22.9164 21.5731 21.5732 22.9162 21.5732 24.5731H25.5732ZM22.5732 36C24.2301 36 25.5732 34.6569 25.5732 33H21.5732C21.5732 32.4477 22.0209 32 22.5732 32V36ZM8.87987 33C8.87987 34.6569 10.223 36 11.8799 36V32C12.4322 32 12.8799 32.4477 12.8799 33H8.87987ZM9.87987 25.5731C9.32759 25.5731 8.87987 25.1254 8.87987 24.5731H12.8799C12.8799 22.9162 11.5367 21.5731 9.87987 21.5731V25.5731ZM-2 22.5731C-2 24.2299 -0.656858 25.5731 0.999999 25.5731V21.5731C1.55229 21.5731 2 22.0208 2 22.5731H-2ZM1 8.87976C-0.656855 8.87976 -2 10.2229 -2 11.8798H2C2 12.432 1.55229 12.8798 1 12.8798V8.87976ZM8.87987 9.87976C8.87987 9.32747 9.32758 8.87976 9.87987 8.87976V12.8798C11.5367 12.8798 12.8799 11.5366 12.8799 9.87976H8.87987ZM22.5732 2C22.0209 2 21.5732 1.55229 21.5732 1H25.5732C25.5732 -0.656855 24.2301 -2 22.5732 -2V2ZM11.8799 -2C10.223 -2 8.87987 -0.656857 8.87987 0.999999H12.8799C12.8799 1.55229 12.4322 2 11.8799 2V-2Z" fill="#4C6474" mask="url(#path-1-inside-1_1321_2996)"/>
<g clip-path="url(#clip0_1321_2996)">
<path d="M14.5247 12.5603C13.6268 12.5603 12.8848 13.0108 12.373 13.6687C11.863 14.3245 11.5747 15.1933 11.5747 16.0603C11.5747 16.6679 11.7178 17.3775 11.9289 18.0031C12.1379 18.6226 12.4249 19.1933 12.7332 19.5017C12.774 19.5424 12.8305 19.6331 12.8991 19.7881C12.965 19.9373 13.0336 20.1258 13.106 20.343C13.1754 20.5513 13.2469 20.7815 13.3222 21.0237L13.3314 21.0535C13.4098 21.3057 13.492 21.5697 13.5787 21.8298C13.751 22.3468 13.9454 22.8621 14.1713 23.2506C14.2843 23.445 14.4109 23.6179 14.5551 23.7442C14.7006 23.8717 14.8745 23.9603 15.0747 23.9603C15.7613 23.9603 16.2073 23.6897 16.4842 23.2686C16.7498 22.8648 16.8468 22.3417 16.8975 21.856C16.9182 21.6575 16.9316 21.4584 16.9442 21.2716C16.9472 21.2278 16.9501 21.1846 16.9531 21.1423C16.9688 20.9163 16.9856 20.7152 17.015 20.5461C17.0451 20.3733 17.0847 20.2576 17.1318 20.1885C17.1702 20.1324 17.2094 20.1103 17.2747 20.1103C17.3399 20.1103 17.3791 20.1324 17.4175 20.1885C17.4647 20.2576 17.5043 20.3733 17.5343 20.5461C17.5637 20.7152 17.5805 20.9163 17.5962 21.1423C17.5992 21.1846 17.6021 21.2278 17.6051 21.2716C17.6177 21.4584 17.6312 21.6575 17.6519 21.856C17.7025 22.3417 17.7995 22.8648 18.0651 23.2686C18.342 23.6897 18.788 23.9603 19.4747 23.9603C19.6748 23.9603 19.8487 23.8717 19.9942 23.7442C20.1384 23.6179 20.265 23.445 20.378 23.2506C20.6039 22.8621 20.7983 22.3468 20.9706 21.8298C21.0573 21.5697 21.1395 21.3057 21.2179 21.0535L21.2272 21.0235C21.3024 20.7814 21.3739 20.5512 21.4433 20.343C21.5157 20.1258 21.5843 19.9373 21.6503 19.7881C21.7188 19.6331 21.7753 19.5424 21.8161 19.5017C22.1244 19.1933 22.4114 18.6226 22.6204 18.0031C22.8315 17.3775 22.9747 16.6679 22.9747 16.0603C22.9747 15.1933 22.6863 14.3245 22.1763 13.6687C21.6645 13.0108 20.9225 12.5603 20.0247 12.5603C19.1706 12.5603 18.7329 12.704 18.3691 12.8496C18.3336 12.8638 18.2992 12.8778 18.2655 12.8915C17.9697 13.0121 17.729 13.1103 17.2747 13.1103C16.8203 13.1103 16.5796 13.0121 16.2838 12.8915C16.2501 12.8778 16.2157 12.8638 16.1802 12.8496C15.8164 12.704 15.3787 12.5603 14.5247 12.5603ZM14.5247 14.0603C15.039 14.0603 15.424 14.1875 15.8364 14.325L15.8431 14.3272C16.2538 14.4641 16.6922 14.6103 17.2747 14.6103C17.8571 14.6103 18.2955 14.4641 18.7062 14.3272L18.7129 14.325C19.1253 14.1875 19.5103 14.0603 20.0247 14.0603C20.3992 14.0603 20.758 14.2852 21.0319 14.6648C21.3048 15.0429 21.4747 15.5519 21.4747 16.0603C21.4747 16.5127 21.3626 17.0545 21.1847 17.549C21.0054 18.0472 20.7689 18.4707 20.5377 18.7018C20.4531 18.7865 20.3785 18.9164 20.312 19.0553C20.243 19.1995 20.1732 19.3745 20.1038 19.5658C19.9649 19.9484 19.8221 20.4116 19.6863 20.8539L19.6747 20.8918C19.5422 21.3235 19.4171 21.731 19.3064 22.0338C19.2771 22.114 19.2496 22.1846 19.2241 22.2448C19.2206 22.2311 19.2171 22.2168 19.2137 22.2019C19.1631 21.9838 19.1247 21.6759 19.1247 21.3348C19.1247 20.7611 19.0454 20.0937 18.7797 19.5623C18.6457 19.2942 18.461 19.0545 18.2094 18.882C17.9561 18.7083 17.6458 18.6103 17.2747 18.6103C16.9035 18.6103 16.5932 18.7083 16.3399 18.882C16.0883 19.0545 15.9036 19.2942 15.7696 19.5623C15.5039 20.0937 15.4247 20.7611 15.4247 21.3348C15.4247 21.6759 15.3862 21.9838 15.3356 22.2019C15.3322 22.2168 15.3287 22.2311 15.3252 22.2448C15.2997 22.1846 15.2722 22.114 15.2429 22.0338C15.1322 21.731 15.0071 21.3235 14.8746 20.8918L14.863 20.8539C14.7272 20.4116 14.5844 19.9484 14.4456 19.5658C14.3761 19.3745 14.3063 19.1995 14.2373 19.0553C14.1709 18.9164 14.0962 18.7865 14.0116 18.7018C13.7804 18.4707 13.5439 18.0472 13.3647 17.549C13.1867 17.0545 13.0747 16.5127 13.0747 16.0603C13.0747 15.5519 13.2445 15.0429 13.5174 14.6648C13.7913 14.2852 14.1501 14.0603 14.5247 14.0603ZM19.1109 22.4583C19.1109 22.4582 19.1119 22.4572 19.1138 22.4555C19.1118 22.4576 19.1109 22.4584 19.1109 22.4583Z" fill="#4C6474" stroke="#4C6474" stroke-width="0.4"/>
</g>
<defs>
<clipPath id="clip0_1321_2996">
<rect width="11.8852" height="12.24" fill="white" transform="translate(11 12)"/>
</clipPath>
</defs>
</svg>
