<svg width="35" height="35" viewBox="0 0 35 35" fill="none" xmlns="http://www.w3.org/2000/svg">
<path d="M8.5 4C4 4 1 8.5 1 13C1 16.165 2.5 20.5 4 22C5.5 23.5 7 34 10 34C16.81 34 13 23.5 16 23.5C19 23.5 15.19 34 22 34C25 34 26.5 23.5 28 22C29.5 20.5 31 16.165 31 13C31 8.5 28 4 23.5 4C19 4 19 5.5 16 5.5C13 5.5 13 4 8.5 4ZM8.5 7C11.5 7 13 8.5 16 8.5C19 8.5 20.5 7 23.5 7C26.005 7 28 10 28 13C28 15.625 26.71 19.165 25.285 20.59C23.995 21.88 22.09 30.91 21.25 30.91C20.935 30.91 20.5 29.32 20.5 27.385C20.5 24.325 19.645 20.5 16 20.5C12.355 20.5 11.5 24.325 11.5 27.385C11.5 29.32 11.065 30.91 10.75 30.91C9.91 30.91 8.005 21.88 6.715 20.59C5.29 19.165 4 15.625 4 13C4 10 5.995 7 8.5 7Z" fill="#4C6474"/>
<path d="M24.4708 1.80295L25.7617 5.41467C25.975 6.01149 26.5404 6.40983 27.1742 6.40983H31.1331C31.629 6.40983 31.8224 7.05378 31.4087 7.32704L28.375 9.33081C27.7985 9.71155 27.5567 10.4368 27.7892 11.0873L28.9857 14.435C29.1473 14.8874 28.6401 15.2852 28.2393 15.0204L24.8267 12.7665C24.3253 12.4353 23.6747 12.4353 23.1733 12.7665L19.7607 15.0204C19.3599 15.2852 18.8527 14.8874 19.0143 14.435L20.2108 11.0873C20.4433 10.4368 20.2015 9.71155 19.625 9.33081L16.5913 7.32704C16.1776 7.05378 16.371 6.40983 16.8669 6.40983H20.8258C21.4596 6.40983 22.025 6.01149 22.2383 5.41467L23.5292 1.80295C23.6873 1.36066 24.3128 1.36066 24.4708 1.80295Z" fill="white" stroke="#4C6474"/>
<path d="M29.4687 8.69859L30.0853 10.359C30.3036 10.9469 30.8645 11.3369 31.4915 11.3369H33.1715C33.6718 11.3369 33.862 11.9904 33.4397 12.2588L32.3204 12.9704C31.7233 13.35 31.4727 14.0952 31.719 14.7584L32.1987 16.0502C32.3654 16.4994 31.866 16.9033 31.4617 16.6462L29.8047 15.5929C29.3137 15.2807 28.6863 15.2807 28.1953 15.5929L26.5383 16.6462C26.134 16.9033 25.6346 16.4994 25.8013 16.0502L26.281 14.7584C26.5273 14.0952 26.2767 13.35 25.6796 12.9704L24.5603 12.2588C24.138 11.9904 24.3282 11.3369 24.8285 11.3369H26.5085C27.1355 11.3369 27.6964 10.9469 27.9147 10.359L28.5313 8.69859C28.6927 8.264 29.3073 8.264 29.4687 8.69859Z" fill="white" stroke="#4C6474"/>
</svg>
