<svg width="34" height="36" viewBox="0 0 34 36" fill="none" xmlns="http://www.w3.org/2000/svg">
<path d="M1 14.9087H8.70966V30.1451C8.70966 32.2741 6.9838 33.9999 4.85483 33.9999C2.72587 33.9999 1 32.274 1 30.1451V14.9087Z" stroke="#4C6474" stroke-width="2"/>
<rect y="16.8525" width="9.70966" height="1.47148" fill="#4C6474"/>
<rect x="3.46631" y="13.9087" width="6.86691" height="2.77419" transform="rotate(-90 3.46631 13.9087)" fill="#4C6474"/>
<rect y="19.7959" width="9.70966" height="1.47148" fill="#4C6474"/>
<rect y="22.7383" width="9.70966" height="1.47148" fill="#4C6474"/>
<path d="M4.48587 7.68817C5.60961 7.67556 6.70385 7.46897 7.63022 7.09453C8.55659 6.72009 9.27348 6.19462 9.69023 5.58457C10.107 4.97451 10.2049 4.30728 9.97155 3.66724C9.73822 3.0272 9.18414 2.4431 8.37936 1.9888C7.57459 1.53451 6.55528 1.23042 5.45033 1.11499C4.34538 0.999565 3.20441 1.07798 2.17171 1.34033" stroke="#4C6474" stroke-width="2" stroke-linecap="square"/>
<path d="M21.01 8.9458H28.3403V24.3719C28.3403 26.3961 26.6993 28.037 24.6751 28.037C22.6509 28.037 21.01 26.3961 21.01 24.3719V8.9458Z" stroke="#4C6474" stroke-width="2"/>
<rect x="20.01" y="10.8882" width="9.33025" height="1.47148" fill="#4C6474"/>
<path d="M28.6685 3.53271H33.019C33.5608 3.53271 34 3.97192 34 4.5137V4.5137C34 5.05549 33.5608 5.49469 33.019 5.49469H28.6685V3.53271Z" fill="#4C6474"/>
<rect x="20.01" y="13.8306" width="9.33025" height="1.47148" fill="#4C6474"/>
<ellipse cx="27.0079" cy="19.7178" rx="1.66612" ry="0.980987" fill="#4C6474"/>
<ellipse cx="27.0079" cy="22.17" rx="1.66612" ry="0.980987" fill="#4C6474"/>
<path d="M19.4427 2.07764H29.6711V6.94455H19.4427C18.0988 6.94455 17.0093 5.85505 17.0093 4.51109C17.0093 3.16713 18.0988 2.07764 19.4427 2.07764Z" stroke="#4C6474" stroke-width="2"/>
<path d="M24.6716 28.5464C23.9032 29.5955 19.3858 34.6543 23.7622 32.7973C28.1385 30.9403 26.6496 31.9471 25.2405 34.9228" stroke="#4C6474" stroke-width="2" stroke-linecap="round"/>
</svg>
