<svg width="34" height="34" viewBox="0 0 34 34" fill="none" xmlns="http://www.w3.org/2000/svg">
<mask id="path-1-inside-1_1321_3049" fill="white">
<path fill-rule="evenodd" clip-rule="evenodd" d="M17.8348 1.20876C17.7067 1.2379 17.5779 1.27019 17.4487 1.30571C17.3295 1.33849 17.2138 1.37095 17.102 1.40306C16.8575 1.33676 16.6144 1.28274 16.3733 1.2405C9.87732 0.102424 4.74613 7.51233 8.01191 13.7549C8.59564 14.8707 9.62179 15.6669 10.8099 15.9716V17.3704V19.7137L9.651 19.8817C9.23272 19.9424 8.94884 20.3297 9.01694 20.7468C9.08504 21.1639 9.47932 21.4529 9.8976 21.3923L10.8099 21.26V23.2394L9.94254 23.3651C9.52427 23.4257 9.24039 23.813 9.30849 24.2302C9.37658 24.6473 9.77087 24.9363 10.1891 24.8756L10.8099 24.7857V26.2225C10.8099 26.5036 10.8278 26.7806 10.8625 27.0523L9.94254 27.1857C9.52427 27.2463 9.24039 27.6336 9.30849 28.0507C9.37659 28.4679 9.77087 28.7569 10.1891 28.6962L11.2377 28.5442C12.1717 30.9806 14.5327 32.7102 17.2977 32.7102C20.7105 32.7102 23.5079 30.0749 23.766 26.7282L25.2297 26.5161C25.648 26.4554 25.9318 26.0681 25.8637 25.651C25.7956 25.2339 25.4014 24.9449 24.9831 25.0055L23.7854 25.1791V22.9048L25.2297 22.6954C25.648 22.6348 25.9318 22.2475 25.8637 21.8304C25.7956 21.4133 25.4014 21.1243 24.9831 21.1849L23.7854 21.3585V19.3792L24.9381 19.2121C25.3564 19.1515 25.6403 18.7642 25.5722 18.3471C25.5041 17.9299 25.1098 17.6409 24.6915 17.7016L23.7854 17.8329V17.3704V15.9917C25.0289 15.7013 26.1074 14.8858 26.7185 13.7275C30.1044 7.30886 24.7752 -0.369051 17.8348 1.20876ZM20.7854 25.614V23.3397L13.8099 24.3508V26.2225C13.8099 26.3575 13.8176 26.4908 13.8325 26.6218L20.7854 25.614ZM14.3532 28.0926C14.9721 29.0651 16.0596 29.7102 17.2977 29.7102C18.892 29.7102 20.2365 28.6404 20.6524 27.1795L14.3532 28.0926ZM13.8099 22.8045L20.7854 21.7934V19.8141L13.8099 20.8252V22.8045ZM20.7854 18.2678V17.3704H13.8099V19.2789L20.7854 18.2678ZM17.1252 4.51766L16.317 4.29853C14.2721 3.74411 12.3647 4.56692 11.1435 6.23124C9.91192 7.9097 9.55782 10.2381 10.6701 12.3643C10.9097 12.8223 11.3845 13.1084 11.8953 13.1084H22.7705C23.3134 13.1084 23.8117 12.8079 24.065 12.3277C25.2127 10.1521 24.862 7.78459 23.6301 6.10473C22.4211 4.45613 20.4713 3.58619 18.2438 4.19843C18.1346 4.22845 18.03 4.25782 17.93 4.28652L17.1252 4.51766Z"/>
</mask>
<path fill-rule="evenodd" clip-rule="evenodd" d="M17.8348 1.20876C17.7067 1.2379 17.5779 1.27019 17.4487 1.30571C17.3295 1.33849 17.2138 1.37095 17.102 1.40306C16.8575 1.33676 16.6144 1.28274 16.3733 1.2405C9.87732 0.102424 4.74613 7.51233 8.01191 13.7549C8.59564 14.8707 9.62179 15.6669 10.8099 15.9716V17.3704V19.7137L9.651 19.8817C9.23272 19.9424 8.94884 20.3297 9.01694 20.7468C9.08504 21.1639 9.47932 21.4529 9.8976 21.3923L10.8099 21.26V23.2394L9.94254 23.3651C9.52427 23.4257 9.24039 23.813 9.30849 24.2302C9.37658 24.6473 9.77087 24.9363 10.1891 24.8756L10.8099 24.7857V26.2225C10.8099 26.5036 10.8278 26.7806 10.8625 27.0523L9.94254 27.1857C9.52427 27.2463 9.24039 27.6336 9.30849 28.0507C9.37659 28.4679 9.77087 28.7569 10.1891 28.6962L11.2377 28.5442C12.1717 30.9806 14.5327 32.7102 17.2977 32.7102C20.7105 32.7102 23.5079 30.0749 23.766 26.7282L25.2297 26.5161C25.648 26.4554 25.9318 26.0681 25.8637 25.651C25.7956 25.2339 25.4014 24.9449 24.9831 25.0055L23.7854 25.1791V22.9048L25.2297 22.6954C25.648 22.6348 25.9318 22.2475 25.8637 21.8304C25.7956 21.4133 25.4014 21.1243 24.9831 21.1849L23.7854 21.3585V19.3792L24.9381 19.2121C25.3564 19.1515 25.6403 18.7642 25.5722 18.3471C25.5041 17.9299 25.1098 17.6409 24.6915 17.7016L23.7854 17.8329V17.3704V15.9917C25.0289 15.7013 26.1074 14.8858 26.7185 13.7275C30.1044 7.30886 24.7752 -0.369051 17.8348 1.20876ZM20.7854 25.614V23.3397L13.8099 24.3508V26.2225C13.8099 26.3575 13.8176 26.4908 13.8325 26.6218L20.7854 25.614ZM14.3532 28.0926C14.9721 29.0651 16.0596 29.7102 17.2977 29.7102C18.892 29.7102 20.2365 28.6404 20.6524 27.1795L14.3532 28.0926ZM13.8099 22.8045L20.7854 21.7934V19.8141L13.8099 20.8252V22.8045ZM20.7854 18.2678V17.3704H13.8099V19.2789L20.7854 18.2678ZM17.1252 4.51766L16.317 4.29853C14.2721 3.74411 12.3647 4.56692 11.1435 6.23124C9.91192 7.9097 9.55782 10.2381 10.6701 12.3643C10.9097 12.8223 11.3845 13.1084 11.8953 13.1084H22.7705C23.3134 13.1084 23.8117 12.8079 24.065 12.3277C25.2127 10.1521 24.862 7.78459 23.6301 6.10473C22.4211 4.45613 20.4713 3.58619 18.2438 4.19843C18.1346 4.22845 18.03 4.25782 17.93 4.28652L17.1252 4.51766Z" fill="#4C6474"/>
<path d="M17.4487 1.30571L17.1837 0.341465L17.1837 0.341465L17.4487 1.30571ZM17.8348 1.20876L17.6131 0.233642L17.6131 0.233643L17.8348 1.20876ZM17.102 1.40306L16.8403 2.36822L17.1097 2.44126L17.378 2.36421L17.102 1.40306ZM16.3733 1.2405L16.2007 2.22549L16.2007 2.22549L16.3733 1.2405ZM8.01191 13.7549L7.12584 14.2184L7.12584 14.2184L8.01191 13.7549ZM10.8099 15.9716H11.8099V15.1956L11.0583 15.0029L10.8099 15.9716ZM10.8099 19.7137L10.9534 20.7034L11.8099 20.5792V19.7137H10.8099ZM9.651 19.8817L9.79445 20.8714L9.79445 20.8714L9.651 19.8817ZM9.01694 20.7468L8.03 20.9079L8.03 20.9079L9.01694 20.7468ZM9.8976 21.3923L9.75415 20.4026L9.75415 20.4026L9.8976 21.3923ZM10.8099 21.26H11.8099V20.1046L10.6665 20.2704L10.8099 21.26ZM10.8099 23.2394L10.9534 24.229L11.8099 24.1049V23.2394H10.8099ZM9.94254 23.3651L10.086 24.3548L10.086 24.3548L9.94254 23.3651ZM9.30849 24.2302L8.32155 24.3913L8.32155 24.3913L9.30849 24.2302ZM10.1891 24.8756L10.0457 23.886L10.0457 23.886L10.1891 24.8756ZM10.8099 24.7857H11.8099V23.6303L10.6665 23.796L10.8099 24.7857ZM10.8625 27.0523L11.006 28.042L11.979 27.9009L11.8545 26.9257L10.8625 27.0523ZM9.94254 27.1857L9.79909 26.196L9.79909 26.196L9.94254 27.1857ZM10.1891 28.6962L10.0457 27.7066L10.0457 27.7066L10.1891 28.6962ZM11.2377 28.5442L12.1715 28.1863L11.8853 27.4399L11.0943 27.5546L11.2377 28.5442ZM23.766 26.7282L23.6225 25.7386L22.8304 25.8534L22.7689 26.6513L23.766 26.7282ZM25.2297 26.5161L25.3731 27.5057L25.3731 27.5057L25.2297 26.5161ZM25.8637 25.651L24.8768 25.8121L24.8768 25.8121L25.8637 25.651ZM24.9831 25.0055L25.1265 25.9952L25.1265 25.9952L24.9831 25.0055ZM23.7854 25.1791H22.7854V26.3345L23.9288 26.1688L23.7854 25.1791ZM23.7854 22.9048L23.6419 21.9151L22.7854 22.0393V22.9048H23.7854ZM25.2297 22.6954L25.0862 21.7058L25.0862 21.7058L25.2297 22.6954ZM24.9831 21.1849L24.8396 20.1952L24.8396 20.1952L24.9831 21.1849ZM23.7854 21.3585H22.7854V22.5139L23.9288 22.3482L23.7854 21.3585ZM23.7854 19.3792L23.6419 18.3896L22.7854 18.5137V19.3792H23.7854ZM24.9381 19.2121L24.7947 18.2225L24.7947 18.2225L24.9381 19.2121ZM25.5722 18.3471L24.5853 18.5082L24.5853 18.5082L25.5722 18.3471ZM24.6915 17.7016L24.835 18.6912L24.835 18.6912L24.6915 17.7016ZM23.7854 17.8329H22.7854V18.9883L23.9288 18.8226L23.7854 17.8329ZM23.7854 15.9917L23.558 15.0178L22.7854 15.1982V15.9917H23.7854ZM26.7185 13.7275L27.6029 14.194L27.6029 14.194L26.7185 13.7275ZM20.7854 25.614L20.9288 26.6036L21.7854 26.4795V25.614H20.7854ZM20.7854 23.3397H21.7854V22.1843L20.6419 22.35L20.7854 23.3397ZM13.8099 24.3508L13.6665 23.3611L12.8099 23.4853V24.3508H13.8099ZM13.8325 26.6218L12.839 26.7351L12.9557 27.7594L13.976 27.6115L13.8325 26.6218ZM14.3532 28.0926L14.2097 27.103L12.6792 27.3248L13.5096 28.6296L14.3532 28.0926ZM20.6524 27.1795L21.6142 27.4534L22.037 25.9684L20.509 26.1899L20.6524 27.1795ZM20.7854 21.7934L20.9288 22.783L21.7854 22.6589V21.7934H20.7854ZM13.8099 22.8045H12.8099V23.9599L13.9534 23.7942L13.8099 22.8045ZM20.7854 19.8141H21.7854V18.6587L20.6419 18.8244L20.7854 19.8141ZM13.8099 20.8252L13.6665 19.8355L12.8099 19.9597V20.8252H13.8099ZM20.7854 17.3704H21.7854V16.3704H20.7854V17.3704ZM20.7854 18.2678L20.9288 19.2574L21.7854 19.1333V18.2678H20.7854ZM13.8099 17.3704V16.3704H12.8099V17.3704H13.8099ZM13.8099 19.2789H12.8099V20.4343L13.9534 20.2685L13.8099 19.2789ZM16.317 4.29853L16.0553 5.26368L16.0553 5.26369L16.317 4.29853ZM17.1252 4.51766L16.8635 5.48281L17.1329 5.55585L17.4012 5.47881L17.1252 4.51766ZM11.1435 6.23124L11.9497 6.82282L11.9497 6.82282L11.1435 6.23124ZM10.6701 12.3643L9.78406 12.8278L9.78406 12.8278L10.6701 12.3643ZM24.065 12.3277L23.1805 11.8611L23.1805 11.8611L24.065 12.3277ZM23.6301 6.10473L24.4365 5.51336L23.6301 6.10473ZM18.2438 4.19843L17.9788 3.23419L17.9788 3.23419L18.2438 4.19843ZM17.93 4.28652L18.2061 5.24767L18.2061 5.24767L17.93 4.28652ZM17.7138 2.26995C17.8287 2.23836 17.943 2.20969 18.0565 2.18388L17.6131 0.233643C17.4704 0.266104 17.3272 0.302028 17.1837 0.341465L17.7138 2.26995ZM17.378 2.36421C17.4859 2.33324 17.5978 2.30181 17.7138 2.26995L17.1837 0.341465C17.0611 0.37517 16.9417 0.408662 16.826 0.441909L17.378 2.36421ZM16.2007 2.22549C16.4116 2.26243 16.6249 2.30981 16.8403 2.36822L17.3637 0.437906C17.09 0.363718 16.8173 0.303047 16.5459 0.255498L16.2007 2.22549ZM8.89799 13.2914C5.96614 7.6871 10.6275 1.24908 16.2007 2.22549L16.5459 0.255498C9.12715 -1.04423 3.52612 7.33755 7.12584 14.2184L8.89799 13.2914ZM11.0583 15.0029C10.141 14.7677 9.34857 14.1527 8.89799 13.2914L7.12584 14.2184C7.84271 15.5887 9.10257 16.5661 10.5616 16.9402L11.0583 15.0029ZM11.8099 17.3704V15.9716H9.80993V17.3704H11.8099ZM11.8099 19.7137V17.3704H9.80993V19.7137H11.8099ZM9.79445 20.8714L10.9534 20.7034L10.6665 18.7241L9.50754 18.8921L9.79445 20.8714ZM10.0039 20.5857C10.0259 20.7205 9.92967 20.8518 9.79445 20.8714L9.50754 18.8921C8.53577 19.0329 7.8718 19.9388 8.03 20.9079L10.0039 20.5857ZM9.75415 20.4026C9.87555 20.385 9.98411 20.4646 10.0039 20.5857L8.03 20.9079C8.18596 21.8632 9.0831 22.5208 10.0411 22.3819L9.75415 20.4026ZM10.6665 20.2704L9.75415 20.4026L10.0411 22.3819L10.9534 22.2497L10.6665 20.2704ZM11.8099 23.2394V21.26H9.80993V23.2394H11.8099ZM10.086 24.3548L10.9534 24.229L10.6665 22.2497L9.79909 22.3754L10.086 24.3548ZM10.2954 24.069C10.3174 24.2039 10.2212 24.3352 10.086 24.3548L9.79909 22.3754C8.82732 22.5163 8.16334 23.4222 8.32155 24.3913L10.2954 24.069ZM10.0457 23.886C10.1671 23.8684 10.2757 23.948 10.2954 24.069L8.32155 24.3913C8.47751 25.3466 9.37464 26.0042 10.3326 25.8653L10.0457 23.886ZM10.6665 23.796L10.0457 23.886L10.3326 25.8653L10.9534 25.7753L10.6665 23.796ZM11.8099 26.2225V24.7857H9.80993V26.2225H11.8099ZM11.8545 26.9257C11.8251 26.6959 11.8099 26.4612 11.8099 26.2225H9.80993C9.80993 26.5461 9.83052 26.8654 9.87056 27.179L11.8545 26.9257ZM10.086 28.1753L11.006 28.042L10.7191 26.0627L9.79909 26.196L10.086 28.1753ZM10.2954 27.8896C10.3174 28.0244 10.2212 28.1557 10.086 28.1753L9.79909 26.196C8.82732 26.3369 8.16334 27.2427 8.32155 28.2118L10.2954 27.8896ZM10.0457 27.7066C10.1671 27.689 10.2757 27.7685 10.2954 27.8896L8.32155 28.2118C8.47751 29.1672 9.37465 29.8247 10.3326 29.6859L10.0457 27.7066ZM11.0943 27.5546L10.0457 27.7066L10.3326 29.6859L11.3812 29.5339L11.0943 27.5546ZM17.2977 31.7102C14.9605 31.7102 12.9621 30.2487 12.1715 28.1863L10.304 28.9022C11.3813 31.7124 14.1049 33.7102 17.2977 33.7102V31.7102ZM22.7689 26.6513C22.5507 29.4812 20.184 31.7102 17.2977 31.7102V33.7102C21.2371 33.7102 24.4651 30.6687 24.763 26.8051L22.7689 26.6513ZM25.0862 25.5264L23.6225 25.7386L23.9094 27.7179L25.3731 27.5057L25.0862 25.5264ZM24.8768 25.8121C24.8548 25.6773 24.951 25.546 25.0862 25.5264L25.3731 27.5057C26.3449 27.3648 27.0089 26.459 26.8507 25.4899L24.8768 25.8121ZM25.1265 25.9952C25.0051 26.0128 24.8966 25.9332 24.8768 25.8121L26.8507 25.4899C26.6947 24.5346 25.7976 23.877 24.8396 24.0158L25.1265 25.9952ZM23.9288 26.1688L25.1265 25.9952L24.8396 24.0158L23.6419 24.1895L23.9288 26.1688ZM22.7854 22.9048V25.1791H24.7854V22.9048H22.7854ZM25.0862 21.7058L23.6419 21.9151L23.9288 23.8945L25.3731 23.6851L25.0862 21.7058ZM24.8768 21.9915C24.8548 21.8567 24.951 21.7254 25.0862 21.7058L25.3731 23.6851C26.3449 23.5442 27.0089 22.6384 26.8507 21.6693L24.8768 21.9915ZM25.1265 22.1746C25.0051 22.1922 24.8966 22.1126 24.8768 21.9915L26.8507 21.6693C26.6947 20.7139 25.7976 20.0564 24.8396 20.1952L25.1265 22.1746ZM23.9288 22.3482L25.1265 22.1746L24.8396 20.1952L23.6419 20.3689L23.9288 22.3482ZM22.7854 19.3792V21.3585H24.7854V19.3792H22.7854ZM24.7947 18.2225L23.6419 18.3896L23.9288 20.3689L25.0816 20.2018L24.7947 18.2225ZM24.5853 18.5082C24.5632 18.3733 24.6595 18.2421 24.7947 18.2225L25.0816 20.2018C26.0534 20.0609 26.7173 19.155 26.5591 18.1859L24.5853 18.5082ZM24.835 18.6912C24.7136 18.7088 24.605 18.6292 24.5853 18.5082L26.5591 18.1859C26.4032 17.2306 25.506 16.573 24.5481 16.7119L24.835 18.6912ZM23.9288 18.8226L24.835 18.6912L24.5481 16.7119L23.6419 16.8433L23.9288 18.8226ZM22.7854 17.3704V17.8329H24.7854V17.3704H22.7854ZM22.7854 15.9917V17.3704H24.7854V15.9917H22.7854ZM25.834 13.2609C25.3599 14.1595 24.5231 14.7925 23.558 15.0178L24.0127 16.9655C25.5347 16.6101 26.8549 15.6121 27.6029 14.194L25.834 13.2609ZM18.0565 2.18388C24.0365 0.824394 28.8832 7.48058 25.834 13.2609L27.6029 14.194C31.3256 7.13714 25.5138 -1.56249 17.6131 0.233642L18.0565 2.18388ZM21.7854 25.614V23.3397H19.7854V25.614H21.7854ZM20.6419 22.35L13.6665 23.3611L13.9534 25.3405L20.9288 24.3293L20.6419 22.35ZM12.8099 24.3508V26.2225H14.8099V24.3508H12.8099ZM12.8099 26.2225C12.8099 26.3954 12.8198 26.5665 12.839 26.7351L14.8261 26.5086C14.8154 26.415 14.8099 26.3196 14.8099 26.2225H12.8099ZM13.976 27.6115L20.9288 26.6036L20.6419 24.6243L13.6891 25.6321L13.976 27.6115ZM13.5096 28.6296C14.3043 29.8783 15.7035 30.7102 17.2977 30.7102V28.7102C16.4156 28.7102 15.6399 28.2519 15.1968 27.5557L13.5096 28.6296ZM17.2977 30.7102C19.3506 30.7102 21.0791 29.3326 21.6142 27.4534L19.6907 26.9057C19.3938 27.9483 18.4334 28.7102 17.2977 28.7102V30.7102ZM20.509 26.1899L14.2097 27.103L14.4966 29.0823L20.7959 28.1692L20.509 26.1899ZM20.6419 20.8037L13.6665 21.8148L13.9534 23.7942L20.9288 22.783L20.6419 20.8037ZM19.7854 19.8141V21.7934H21.7854V19.8141H19.7854ZM13.9534 21.8148L20.9288 20.8037L20.6419 18.8244L13.6665 19.8355L13.9534 21.8148ZM14.8099 22.8045V20.8252H12.8099V22.8045H14.8099ZM19.7854 17.3704V18.2678H21.7854V17.3704H19.7854ZM13.8099 18.3704H20.7854V16.3704H13.8099V18.3704ZM14.8099 19.2789V17.3704H12.8099V19.2789H14.8099ZM20.6419 17.2781L13.6665 18.2892L13.9534 20.2685L20.9288 19.2574L20.6419 17.2781ZM16.0553 5.26369L16.8635 5.48281L17.3868 3.5525L16.5786 3.33337L16.0553 5.26369ZM11.9497 6.82282C12.9603 5.44554 14.462 4.83171 16.0553 5.26368L16.5786 3.33337C14.0821 2.65651 11.7691 3.68831 10.3372 5.63965L11.9497 6.82282ZM11.5562 11.9007C10.6365 10.1427 10.9231 8.22193 11.9497 6.82282L10.3372 5.63965C8.9007 7.59747 8.47914 10.3334 9.78406 12.8278L11.5562 11.9007ZM11.8953 12.1084C11.7575 12.1084 11.6236 12.0296 11.5562 11.9007L9.78406 12.8278C10.1958 13.6149 11.0116 14.1084 11.8953 14.1084V12.1084ZM22.7705 12.1084H11.8953V14.1084H22.7705V12.1084ZM23.1805 11.8611C23.1003 12.0132 22.9425 12.1084 22.7705 12.1084V14.1084C23.6844 14.1084 24.5231 13.6026 24.9495 12.7943L23.1805 11.8611ZM22.8236 6.6961C23.8458 8.08987 24.137 10.0481 23.1805 11.8611L24.9495 12.7943C26.2885 10.2561 25.8782 7.47931 24.4365 5.51336L22.8236 6.6961ZM18.5088 5.16268C20.2953 4.67166 21.8337 5.34617 22.8236 6.6961L24.4365 5.51336C23.0084 3.56608 20.6474 2.50073 17.9788 3.23419L18.5088 5.16268ZM18.2061 5.24767C18.302 5.22011 18.403 5.19177 18.5088 5.16268L17.9788 3.23419C17.8662 3.26513 17.7579 3.29553 17.654 3.32537L18.2061 5.24767ZM17.4012 5.47881L18.2061 5.24767L17.654 3.32537L16.8492 3.5565L17.4012 5.47881Z" fill="#4C6474" mask="url(#path-1-inside-1_1321_3049)"/>
</svg>
