<svg width="34" height="34" viewBox="0 0 34 34" fill="none" xmlns="http://www.w3.org/2000/svg">
<path d="M11.05 3.5415C5.80978 3.5415 1.54541 8.48071 1.54541 14.5529V15.7764C1.54541 16.7184 1.86434 17.5712 2.37231 18.2233C1.84337 18.8913 1.54852 19.7638 1.54541 20.6703V21.8938C1.54541 26.6152 4.86144 30.4582 8.93783 30.4582H25.8348C29.9112 30.4582 33.2272 26.6152 33.2272 21.8938V20.6703C33.2272 19.7282 32.9083 18.8754 32.4003 18.2233C32.9083 17.5712 33.2272 16.7184 33.2272 15.7764V14.5529C33.2272 8.48071 28.9629 3.5415 23.7227 3.5415H11.05ZM11.05 5.98847H23.7227C26.6786 5.98847 29.2279 8.01212 30.4097 10.9228C30.2935 10.9081 30.1784 10.8824 30.059 10.8824C29.4148 10.8824 28.8235 11.1026 28.3271 11.4819C27.9873 10.919 27.5354 10.4594 27.0096 10.142C26.4838 9.82467 25.8997 9.65895 25.3068 9.65893C24.5042 9.65893 23.7649 9.9648 23.163 10.4664C22.8314 9.8479 22.3696 9.33706 21.821 8.98182C21.2724 8.62658 20.6549 8.43858 20.0265 8.43544C18.9915 8.43544 18.0622 8.93707 17.3863 9.73234C17.0431 9.3232 16.6327 8.9977 16.1793 8.77498C15.7259 8.55226 15.2386 8.43682 14.7462 8.43544C13.4261 8.43544 12.2644 9.25518 11.6097 10.4664C11.0077 9.9648 10.2685 9.65893 9.46586 9.65893C8.21971 9.65893 7.11085 10.3808 6.44553 11.4819C5.94918 11.1026 5.35779 10.8824 4.71359 10.8824C4.59426 10.8824 4.47915 10.9069 4.36298 10.9228C5.54577 8.01212 8.09404 5.98847 11.05 5.98847ZM14.7462 10.8824C15.6227 10.8824 16.3303 11.7021 16.3303 12.7176V15.7764C16.3303 16.4493 15.855 16.9998 15.2742 16.9998H14.2181C13.6373 16.9998 13.1621 16.4493 13.1621 15.7764V12.7176C13.1621 11.7021 13.8696 10.8824 14.7462 10.8824ZM20.0265 10.8824C20.903 10.8824 21.6106 11.7021 21.6106 12.7176V15.7764C21.6106 16.4493 21.1353 16.9998 20.5545 16.9998H19.4984C18.9176 16.9998 18.4424 16.4493 18.4424 15.7764V12.7176C18.4424 11.7021 19.1499 10.8824 20.0265 10.8824ZM9.46586 12.1059C10.3424 12.1059 11.05 12.9256 11.05 13.9411V15.7764C11.05 16.4493 10.5747 16.9998 9.99389 16.9998H8.93783C8.357 16.9998 7.88177 16.4493 7.88177 15.7764V13.9411C7.88177 12.9256 8.58933 12.1059 9.46586 12.1059ZM25.3068 12.1059C26.1833 12.1059 26.8909 12.9256 26.8909 13.9411V15.7764C26.8909 16.4493 26.4156 16.9998 25.8348 16.9998H24.7787C24.1979 16.9998 23.7227 16.4493 23.7227 15.7764V13.9411C23.7227 12.9256 24.4302 12.1059 25.3068 12.1059ZM4.71359 13.3294C5.29442 13.3294 5.76965 13.88 5.76965 14.5529V15.7764C5.76965 16.4493 5.29442 16.9998 4.71359 16.9998C4.13276 16.9998 3.65753 16.4493 3.65753 15.7764V14.5529C3.65753 13.88 4.13276 13.3294 4.71359 13.3294ZM30.059 13.3294C30.6399 13.3294 31.1151 13.88 31.1151 14.5529V15.7764C31.1151 16.4493 30.6399 16.9998 30.059 16.9998C29.4782 16.9998 29.003 16.4493 29.003 15.7764V14.5529C29.003 13.88 29.4782 13.3294 30.059 13.3294ZM4.71359 19.4468C5.29442 19.4468 5.76965 19.9974 5.76965 20.6703C5.76965 21.3432 5.29442 21.8938 4.71359 21.8938C4.13276 21.8938 3.65753 21.3432 3.65753 20.6703C3.65753 19.9974 4.13276 19.4468 4.71359 19.4468ZM8.93783 19.4468H9.99389C10.5747 19.4468 11.05 19.9974 11.05 20.6703V21.8938C11.05 22.5667 10.5747 23.1173 9.99389 23.1173C8.83223 23.1173 7.88177 22.0161 7.88177 20.6703C7.88177 19.9974 8.357 19.4468 8.93783 19.4468ZM14.2181 19.4468H15.2742C15.855 19.4468 16.3303 19.9974 16.3303 20.6703V21.8938C16.3303 22.5667 15.855 23.1173 15.2742 23.1173H14.2181C13.6373 23.1173 13.1621 22.5667 13.1621 21.8938V20.6703C13.1621 19.9974 13.6373 19.4468 14.2181 19.4468ZM19.4984 19.4468H20.5545C21.1353 19.4468 21.6106 19.9974 21.6106 20.6703V21.8938C21.6106 22.5667 21.1353 23.1173 20.5545 23.1173H19.4984C18.9176 23.1173 18.4424 22.5667 18.4424 21.8938V20.6703C18.4424 19.9974 18.9176 19.4468 19.4984 19.4468ZM24.7787 19.4468H25.8348C26.4156 19.4468 26.8909 19.9974 26.8909 20.6703C26.8909 22.0161 25.9404 23.1173 24.7787 23.1173C24.1979 23.1173 23.7227 22.5667 23.7227 21.8938V20.6703C23.7227 19.9974 24.1979 19.4468 24.7787 19.4468ZM30.059 19.4468C30.6399 19.4468 31.1151 19.9974 31.1151 20.6703C31.1151 21.3432 30.6399 21.8938 30.059 21.8938C29.4782 21.8938 29.003 21.3432 29.003 20.6703C29.003 19.9974 29.4782 19.4468 30.059 19.4468ZM6.6145 23.5822C7.39599 24.7812 8.61045 25.5642 9.99389 25.5642C10.8071 25.5642 11.5463 25.1972 12.106 24.6099C12.6657 25.1972 13.405 25.5642 14.2181 25.5642H15.2742C16.0874 25.5642 16.8266 25.1972 17.3863 24.6099C17.946 25.1972 18.6853 25.5642 19.4984 25.5642H20.5545C21.3677 25.5642 22.1069 25.1972 22.6666 24.6099C23.2263 25.1972 23.9656 25.5642 24.7787 25.5642C26.1622 25.5642 27.3766 24.7812 28.1581 23.5822C28.6862 24.0593 29.3409 24.3407 30.059 24.3407C30.2787 24.3407 30.4952 24.3138 30.7032 24.2637C30.2996 25.3736 29.6225 26.3211 28.7566 26.9876C27.8907 27.6542 26.8744 28.0102 25.8348 28.0112H8.93783C7.89822 28.0102 6.88193 27.6542 6.01603 26.9876C5.15013 26.3211 4.47303 25.3736 4.06939 24.2637C4.27744 24.3138 4.49393 24.3407 4.71359 24.3407C5.43171 24.3407 6.08647 24.0593 6.6145 23.5822Z" fill="#4C6474"/>
</svg>
