<svg width="26" height="26" viewBox="0 0 26 26" fill="none" xmlns="http://www.w3.org/2000/svg">
<path d="M19.5 10.3633H17.875C17.8744 9.72922 17.6173 9.12129 17.1604 8.67294C16.7034 8.22458 16.0838 7.97241 15.4375 7.97178V6.37744C16.5145 6.37871 17.5471 6.79905 18.3087 7.54627C19.0703 8.29349 19.4987 9.30657 19.5 10.3633V10.3633Z" fill="#292F33"/>
<path d="M22.7502 10.3633H21.1252C21.1235 8.88387 20.5237 7.46551 19.4575 6.41938C18.3912 5.37326 16.9456 4.78481 15.4377 4.78312V3.18878C17.3764 3.19089 19.2352 3.94745 20.606 5.29248C21.9769 6.63751 22.7481 8.46115 22.7502 10.3633V10.3633ZM16.5208 17.1249L18.3408 15.3392C18.5844 15.1002 18.8941 14.9365 19.2317 14.8685C19.5692 14.8004 19.9196 14.8311 20.2396 14.9566L22.4561 15.8271C22.7828 15.9554 23.0628 16.1767 23.2601 16.4626C23.4573 16.7485 23.5627 17.0858 23.5627 17.431V21.3858C23.5633 21.6208 23.5149 21.8535 23.4207 22.0696C23.3264 22.2857 23.1882 22.4807 23.0145 22.6425C22.8407 22.8044 22.6352 22.9298 22.4104 23.011C22.1855 23.0922 21.9462 23.1275 21.707 23.1148C6.17032 22.1662 3.03245 9.25524 2.44989 4.31119C2.42167 4.06949 2.44593 3.82466 2.52107 3.59281C2.59621 3.36097 2.72053 3.14736 2.88585 2.96603C3.05117 2.7847 3.25374 2.63977 3.48024 2.54077C3.70675 2.44176 3.95205 2.39093 4.20001 2.39161H8.15933C8.51119 2.3916 8.855 2.49503 9.14638 2.68855C9.43776 2.88208 9.66336 3.15683 9.79408 3.47735L10.6805 5.65203C10.8084 5.96594 10.8397 6.30977 10.7703 6.64093C10.701 6.97208 10.5342 7.276 10.2905 7.51502L8.47051 9.30068C8.47051 9.30068 9.47964 16.2616 16.5208 17.1249Z" fill="#292F33"/>
</svg>
