<svg width="153" height="60" viewBox="0 0 153 60" fill="none" xmlns="http://www.w3.org/2000/svg">
<path d="M6.42139 17.6842C6.42139 13.5244 7.61007 9.39903 9.6304 6.35599C11.648 3.3171 14.3788 1.5 17.5009 1.5C21.0181 1.5 22.6882 2.17153 24.0976 2.83195C24.2499 2.90332 24.4023 2.97643 24.5562 3.05024C25.9528 3.72006 27.4693 4.44737 30.0804 4.44737C32.6914 4.44737 34.2079 3.72006 35.6045 3.05024C35.7584 2.97643 35.9108 2.90332 36.0631 2.83195C37.4725 2.17153 39.1427 1.5 42.6598 1.5C45.782 1.5 48.5127 3.3171 50.5303 6.35599C52.5506 9.39903 53.7393 13.5244 53.7393 17.6842C53.7393 20.7216 53.4821 24.3173 52.9227 27.4929C52.643 29.0806 52.2928 30.5342 51.8742 31.747C51.4482 32.9811 50.9856 33.864 50.5327 34.3946C50.0556 34.9535 49.644 35.7882 49.2816 36.6413C48.9008 37.5376 48.5055 38.6257 48.0994 39.8093C47.737 40.8658 47.3748 41.9699 47.0011 43.1088C46.5084 44.6107 45.9959 46.173 45.4368 47.7665C44.471 50.5194 43.459 53.0827 42.4089 54.9391C41.8823 55.8699 41.3885 56.5456 40.9436 56.9715C40.4933 57.4026 40.2338 57.4474 40.1439 57.4474C38.9502 57.4474 38.0785 57.1807 37.4175 56.779C36.7526 56.3749 36.212 55.7797 35.7684 54.9894C34.851 53.3551 34.4376 51.0567 34.2099 48.4986C34.1193 47.4816 34.0608 46.4681 34.0032 45.4699C33.9893 45.2305 33.9756 44.992 33.9614 44.7545C33.8896 43.5487 33.8074 42.3596 33.6531 41.3193C33.5032 40.3091 33.2636 39.2674 32.7846 38.4464C32.2539 37.5367 31.364 36.8158 30.0804 36.8158C28.7967 36.8158 27.9069 37.5367 27.3761 38.4464C26.8972 39.2674 26.6575 40.3091 26.5076 41.3193C26.3533 42.3596 26.2712 43.5487 26.1993 44.7545C26.1851 44.992 26.1714 45.2306 26.1576 45.47C26.0999 46.4682 26.0414 47.4817 25.9509 48.4986C25.7231 51.0567 25.3098 53.3551 24.3923 54.9894C23.9487 55.7797 23.4081 56.3749 22.7432 56.779C22.0823 57.1807 21.2105 57.4474 20.0168 57.4474C19.9305 57.4474 19.6792 57.406 19.2423 56.9805C18.809 56.5585 18.3292 55.8863 17.8197 54.9567C16.8035 53.1027 15.8367 50.5413 14.9168 47.7879C14.3923 46.2178 13.92 44.7039 13.4644 43.2437C13.0986 42.0711 12.7435 40.933 12.3809 39.8283C11.9921 38.6439 11.6113 37.554 11.2403 36.6554C10.8877 35.8012 10.4816 34.9596 9.99929 34.3946C9.53475 33.8503 9.04819 32.9521 8.58786 31.7137C8.13508 30.4957 7.74037 29.0387 7.41603 27.4526C6.76681 24.2779 6.42139 20.6944 6.42139 17.6842Z" stroke="#1D97C1" stroke-width="3"/>
<path d="M39.5892 11.5405L34.3874 10.8475C33.6693 10.7519 32.9897 11.3798 32.8698 12.2498L30.2647 31.1554C30.1449 32.0254 30.63 32.8085 31.3481 32.9041L36.55 33.5967C41.569 34.2653 46.335 29.8614 47.1729 23.7811C48.0107 17.7007 44.6082 12.2091 39.5892 11.5405ZM36.9842 30.4456L33.0828 29.9259L35.2537 14.1712L39.1551 14.6909C42.7403 15.1685 45.1704 19.0911 44.5781 23.3901C43.9857 27.6892 40.5686 30.9231 36.9842 30.4456Z" fill="#1D97C1"/>
<path d="M20.4499 11.5403L25.6517 10.8471C26.3698 10.7514 27.0494 11.3793 27.1693 12.2493L29.7752 31.1548C29.8952 32.0247 29.41 32.8079 28.6919 32.9035L23.4901 33.5964C18.4712 34.2651 13.7049 29.8615 12.8668 23.7812C12.0287 17.7009 15.4309 12.2091 20.4499 11.5403ZM23.0557 30.4453L26.9571 29.9254L24.7855 14.1708L20.8841 14.6907C17.299 15.1684 14.869 19.0911 15.4616 23.3901C16.0541 27.6892 19.4714 30.9229 23.0557 30.4453Z" fill="#1D97C1"/>
<path d="M7.8714 30.4839C7.8714 32.4795 4.82285 39.9803 8.42601 41.9759C12.0292 43.9715 18.4413 31.7692 19.1919 31.9355" stroke="#1D97C1" stroke-width="3" stroke-linecap="round"/>
<path d="M52.6603 30.9678C52.6603 32.9634 55.7089 40.4642 52.1057 42.4598C48.5026 44.4554 42.0905 32.2531 41.3398 32.4194" stroke="#1D97C1" stroke-width="3" stroke-linecap="round"/>
<path d="M18.3757 30.0463C18.3209 29.7669 18.1182 29.114 18.5729 29.0022C18.8408 28.9364 18.8134 29.4951 18.8134 29.6265C18.8134 30.2299 18.7971 29.5253 18.8161 29.3104C18.8185 29.2837 18.862 29.0861 18.862 29.2068C18.862 29.3529 18.862 29.7912 18.862 29.6451C18.862 29.2392 18.9775 28.899 18.5054 28.8402C18.3138 28.8163 17.9258 28.7004 17.8191 28.9252C17.7282 29.1166 17.7663 29.5057 17.9109 29.6637C18.146 29.9205 18.4385 29.8249 18.473 29.5203" stroke="#1D97C1" stroke-linecap="round"/>
<path d="M19.7861 30.7157C19.8082 30.4339 19.9961 30.1546 20.2482 30.0038C20.3622 29.9355 20.6471 29.7853 20.7805 29.8603C20.9465 29.9536 20.6065 30.4712 20.5184 30.5723C20.3755 30.7362 20.5684 30.3312 20.6102 30.2694C20.6933 30.147 20.3953 30.6586 20.5373 30.7051C20.6631 30.7463 20.8426 30.611 20.9156 30.5245C20.9655 30.4652 21.002 30.3416 21.002 30.4713C21.002 31.0296 21.0507 30.4194 21.0507 30.2057C21.0507 30.0693 21.1338 30.4707 21.1696 30.5351C21.3001 30.7699 21.4924 30.9588 21.6829 31.1461" stroke="#1D97C1" stroke-linecap="round"/>
<path d="M38.7542 30.8113C38.6717 30.7482 38.1228 30.481 38.2219 30.3836C38.3186 30.2885 38.5169 30.3324 38.6353 30.3437C38.8876 30.3679 39.0788 30.4932 39.1919 30.7157" stroke="#1D97C1" stroke-linecap="round"/>
<path d="M40.9428 30.2376C40.6439 30.1229 40.3106 29.9967 40.3106 29.6531C40.3106 29.4318 40.3061 29.3149 40.5618 29.3317C40.7675 29.3451 41.1374 29.4784 41.1374 29.7116" stroke="#1D97C1" stroke-linecap="round"/>
<path d="M64.6148 8.83349H65.3828C68.2468 8.83349 70.4548 9.6175 72.0068 11.1855C73.5748 12.7375 74.3588 14.9535 74.3588 17.8335C74.3588 19.4815 73.9588 20.9935 73.1588 22.3695C72.3588 23.7455 71.2708 24.8335 69.8948 25.6335C68.5348 26.4335 67.0308 26.8335 65.3828 26.8335H64.6148V8.83349ZM65.5748 26.0895C67.0468 26.0895 68.3908 25.7295 69.6068 25.0095C70.8228 24.2735 71.7828 23.2735 72.4868 22.0095C73.2068 20.7455 73.5668 19.3535 73.5668 17.8335C73.5668 15.1775 72.8708 13.1375 71.4788 11.7135C70.1028 10.2735 68.1348 9.5535 65.5748 9.5535H65.3828V26.0895H65.5748ZM82.1402 27.2175C81.0522 27.2175 80.0682 26.9535 79.1882 26.4255C78.3082 25.8815 77.6202 25.1695 77.1242 24.2895C76.6282 23.3935 76.3802 22.4255 76.3802 21.3855C76.3802 20.3615 76.6282 19.4095 77.1242 18.5295C77.6362 17.6495 78.3242 16.9535 79.1882 16.4415C80.0682 15.9135 81.0442 15.6495 82.1162 15.6495C83.1722 15.6495 84.1322 15.9135 84.9962 16.4415C85.8762 16.9535 86.5642 17.6495 87.0602 18.5295C87.5562 19.4095 87.8042 20.3615 87.8042 21.3855C87.8042 22.4575 87.5642 23.4415 87.0842 24.3375C86.6042 25.2175 85.9322 25.9215 85.0682 26.4495C84.2202 26.9615 83.2442 27.2175 82.1402 27.2175ZM82.1402 26.5455C83.0522 26.5455 83.8842 26.3135 84.6362 25.8495C85.3882 25.3855 85.9722 24.7695 86.3882 24.0015C86.8202 23.2175 87.0362 22.3615 87.0362 21.4335C87.0362 20.5215 86.8202 19.6735 86.3882 18.8895C85.9562 18.1055 85.3642 17.4815 84.6122 17.0175C83.8602 16.5535 83.0282 16.3215 82.1162 16.3215C81.2042 16.3215 80.3642 16.5615 79.5962 17.0415C78.8442 17.5055 78.2442 18.1295 77.7962 18.9135C77.3642 19.6975 77.1482 20.5455 77.1482 21.4575C77.1482 22.3695 77.3642 23.2175 77.7962 24.0015C78.2442 24.7695 78.8442 25.3855 79.5962 25.8495C80.3642 26.3135 81.2122 26.5455 82.1402 26.5455ZM95.7915 15.6495C96.8475 15.6495 97.8075 15.9135 98.6715 16.4415C99.5515 16.9535 100.24 17.6495 100.736 18.5295C101.232 19.4095 101.48 20.3615 101.48 21.3855C101.48 22.4575 101.24 23.4415 100.76 24.3375C100.28 25.2175 99.6075 25.9215 98.7435 26.4495C97.8955 26.9615 96.9195 27.2175 95.8155 27.2175C94.7435 27.2175 93.7675 26.9535 92.8875 26.4255C92.0075 25.8975 91.3115 25.1935 90.7995 24.3135C90.3035 23.4175 90.0555 22.4575 90.0555 21.4335V20.4975C90.0555 18.4655 90.2635 16.8095 90.6795 15.5295C91.1115 14.2335 91.7435 13.2095 92.5755 12.4575C93.4075 11.7055 94.5035 11.0575 95.8635 10.5135L100.16 8.7855V9.48149L96.0315 11.1615C94.3995 11.8175 93.1515 12.7055 92.2875 13.8255C91.4235 14.9295 90.9355 16.4815 90.8235 18.4815C91.3195 17.6175 91.9995 16.9295 92.8635 16.4175C93.7435 15.9055 94.7195 15.6495 95.7915 15.6495ZM95.8155 26.5455C96.7275 26.5455 97.5595 26.3135 98.3115 25.8495C99.0635 25.3855 99.6475 24.7695 100.064 24.0015C100.496 23.2175 100.712 22.3615 100.712 21.4335C100.712 20.5215 100.496 19.6735 100.064 18.8895C99.6315 18.1055 99.0395 17.4815 98.2875 17.0175C97.5355 16.5535 96.7035 16.3215 95.7915 16.3215C94.8795 16.3215 94.0395 16.5615 93.2715 17.0415C92.5195 17.5055 91.9195 18.1295 91.4715 18.9135C91.0395 19.6975 90.8235 20.5455 90.8235 21.4575C90.8235 22.3695 91.0395 23.2175 91.4715 24.0015C91.9195 24.7695 92.5195 25.3855 93.2715 25.8495C94.0395 26.3135 94.8875 26.5455 95.8155 26.5455ZM103.91 16.0335H104.678V18.6735C105.11 17.8095 105.782 17.1135 106.694 16.5855C107.606 16.0415 108.566 15.7695 109.574 15.7695C110.614 15.7695 111.566 16.0255 112.43 16.5375C113.31 17.0495 114.006 17.7375 114.518 18.6015C115.03 19.4655 115.286 20.4095 115.286 21.4335C115.286 22.4575 115.03 23.4015 114.518 24.2655C114.006 25.1295 113.31 25.8175 112.43 26.3295C111.566 26.8415 110.614 27.0975 109.574 27.0975C108.598 27.0975 107.654 26.8335 106.742 26.3055C105.846 25.7775 105.158 25.0815 104.678 24.2175V31.6335H103.91V16.0335ZM109.622 26.4255C110.502 26.4255 111.318 26.2015 112.07 25.7535C112.822 25.2895 113.414 24.6815 113.846 23.9295C114.294 23.1615 114.518 22.3295 114.518 21.4335C114.518 20.5535 114.294 19.7295 113.846 18.9615C113.398 18.1935 112.798 17.5855 112.046 17.1375C111.294 16.6735 110.478 16.4415 109.598 16.4415C108.718 16.4415 107.894 16.6735 107.126 17.1375C106.374 17.6015 105.766 18.2175 105.302 18.9855C104.854 19.7535 104.63 20.5775 104.63 21.4575C104.63 22.3375 104.854 23.1615 105.302 23.9295C105.766 24.6815 106.382 25.2895 107.15 25.7535C107.918 26.2015 108.742 26.4255 109.622 26.4255ZM117.745 16.0335H118.513V19.7535H119.689C120.809 19.7535 121.673 20.0655 122.281 20.6895C122.889 21.2975 123.193 22.1695 123.193 23.3055C123.193 23.9455 123.033 24.5375 122.713 25.0815C122.393 25.6255 121.961 26.0575 121.417 26.3775C120.873 26.6815 120.273 26.8335 119.617 26.8335H117.745V16.0335ZM125.329 16.0335H126.073V26.8335H125.329V16.0335ZM119.641 26.1855C120.425 26.1855 121.089 25.9055 121.633 25.3455C122.177 24.7855 122.449 24.1055 122.449 23.3055C122.449 22.3775 122.201 21.6655 121.705 21.1695C121.225 20.6575 120.537 20.4015 119.641 20.4015H118.513V26.1855H119.641ZM129.675 16.0335H130.419V25.7535L138.171 16.0335H138.867V26.8335H138.123V17.1375L130.347 26.8335H129.675V16.0335ZM134.283 12.9375C133.211 12.9375 132.371 12.6735 131.763 12.1455C131.155 11.6175 130.835 10.9535 130.803 10.1535H131.475C131.523 10.7615 131.795 11.2655 132.291 11.6655C132.803 12.0655 133.459 12.2655 134.259 12.2655C135.043 12.2655 135.683 12.0655 136.179 11.6655C136.691 11.2655 136.987 10.7615 137.067 10.1535H137.739C137.707 10.9375 137.379 11.6015 136.755 12.1455C136.131 12.6735 135.307 12.9375 134.283 12.9375ZM64.6148 31.8335H65.3828C68.2468 31.8335 70.4548 32.6175 72.0068 34.1855C73.5748 35.7375 74.3588 37.9535 74.3588 40.8335C74.3588 42.4815 73.9588 43.9935 73.1588 45.3695C72.3588 46.7455 71.2708 47.8335 69.8948 48.6335C68.5348 49.4335 67.0308 49.8335 65.3828 49.8335H64.6148V31.8335ZM65.5748 49.0895C67.0468 49.0895 68.3908 48.7295 69.6068 48.0095C70.8228 47.2735 71.7828 46.2735 72.4868 45.0095C73.2068 43.7455 73.5668 42.3535 73.5668 40.8335C73.5668 38.1775 72.8708 36.1375 71.4788 34.7135C70.1028 33.2735 68.1348 32.5535 65.5748 32.5535H65.3828V49.0895H65.5748ZM82.1402 50.2175C81.0522 50.2175 80.0682 49.9535 79.1882 49.4255C78.3082 48.8815 77.6202 48.1695 77.1242 47.2895C76.6282 46.3935 76.3802 45.4255 76.3802 44.3855C76.3802 43.3615 76.6282 42.4095 77.1242 41.5295C77.6362 40.6495 78.3242 39.9535 79.1882 39.4415C80.0682 38.9135 81.0442 38.6495 82.1162 38.6495C83.1722 38.6495 84.1322 38.9135 84.9962 39.4415C85.8762 39.9535 86.5642 40.6495 87.0602 41.5295C87.5562 42.4095 87.8042 43.3615 87.8042 44.3855C87.8042 45.4575 87.5642 46.4415 87.0842 47.3375C86.6042 48.2175 85.9322 48.9215 85.0682 49.4495C84.2202 49.9615 83.2442 50.2175 82.1402 50.2175ZM82.1402 49.5455C83.0522 49.5455 83.8842 49.3135 84.6362 48.8495C85.3882 48.3855 85.9722 47.7695 86.3882 47.0015C86.8202 46.2175 87.0362 45.3615 87.0362 44.4335C87.0362 43.5215 86.8202 42.6735 86.3882 41.8895C85.9562 41.1055 85.3642 40.4815 84.6122 40.0175C83.8602 39.5535 83.0282 39.3215 82.1162 39.3215C81.2042 39.3215 80.3642 39.5615 79.5962 40.0415C78.8442 40.5055 78.2442 41.1295 77.7962 41.9135C77.3642 42.6975 77.1482 43.5455 77.1482 44.4575C77.1482 45.3695 77.3642 46.2175 77.7962 47.0015C78.2442 47.7695 78.8442 48.3855 79.5962 48.8495C80.3642 49.3135 81.2122 49.5455 82.1402 49.5455ZM90.2531 39.0335H91.0211V42.7775L95.2931 39.0335H96.2771L91.3331 43.3535L97.5251 49.8335H96.4931L91.0211 44.0015V49.8335H90.2531V39.0335ZM102.246 39.7295H98.1178V39.0575H107.142V39.7295H103.014V49.8335H102.246V39.7295ZM113.195 50.2175C112.107 50.2175 111.123 49.9535 110.243 49.4255C109.363 48.8815 108.675 48.1695 108.179 47.2895C107.683 46.3935 107.435 45.4255 107.435 44.3855C107.435 43.3615 107.683 42.4095 108.179 41.5295C108.691 40.6495 109.379 39.9535 110.243 39.4415C111.123 38.9135 112.099 38.6495 113.171 38.6495C114.227 38.6495 115.187 38.9135 116.051 39.4415C116.931 39.9535 117.619 40.6495 118.115 41.5295C118.611 42.4095 118.859 43.3615 118.859 44.3855C118.859 45.4575 118.619 46.4415 118.139 47.3375C117.659 48.2175 116.987 48.9215 116.123 49.4495C115.275 49.9615 114.299 50.2175 113.195 50.2175ZM113.195 49.5455C114.107 49.5455 114.939 49.3135 115.691 48.8495C116.443 48.3855 117.027 47.7695 117.443 47.0015C117.875 46.2175 118.091 45.3615 118.091 44.4335C118.091 43.5215 117.875 42.6735 117.443 41.8895C117.011 41.1055 116.419 40.4815 115.667 40.0175C114.915 39.5535 114.083 39.3215 113.171 39.3215C112.259 39.3215 111.419 39.5615 110.651 40.0415C109.899 40.5055 109.299 41.1295 108.851 41.9135C108.419 42.6975 108.203 43.5455 108.203 44.4575C108.203 45.3695 108.419 46.2175 108.851 47.0015C109.299 47.7695 109.899 48.3855 110.651 48.8495C111.419 49.3135 112.267 49.5455 113.195 49.5455ZM121.254 39.0335H122.022V41.6735C122.454 40.8095 123.126 40.1135 124.038 39.5855C124.95 39.0415 125.91 38.7695 126.918 38.7695C127.958 38.7695 128.91 39.0255 129.774 39.5375C130.654 40.0495 131.35 40.7375 131.862 41.6015C132.374 42.4655 132.63 43.4095 132.63 44.4335C132.63 45.4575 132.374 46.4015 131.862 47.2655C131.35 48.1295 130.654 48.8175 129.774 49.3295C128.91 49.8415 127.958 50.0975 126.918 50.0975C125.942 50.0975 124.998 49.8335 124.086 49.3055C123.19 48.7775 122.502 48.0815 122.022 47.2175V54.6335H121.254V39.0335ZM126.966 49.4255C127.846 49.4255 128.662 49.2015 129.414 48.7535C130.166 48.2895 130.758 47.6815 131.19 46.9295C131.638 46.1615 131.862 45.3295 131.862 44.4335C131.862 43.5535 131.638 42.7295 131.19 41.9615C130.742 41.1935 130.142 40.5855 129.39 40.1375C128.638 39.6735 127.822 39.4415 126.942 39.4415C126.062 39.4415 125.238 39.6735 124.47 40.1375C123.718 40.6015 123.11 41.2175 122.646 41.9855C122.198 42.7535 121.974 43.5775 121.974 44.4575C121.974 45.3375 122.198 46.1615 122.646 46.9295C123.11 47.6815 123.726 48.2895 124.494 48.7535C125.262 49.2015 126.086 49.4255 126.966 49.4255Z" fill="#1D97C1"/>
<path d="M64.6148 8.83349V8.33349H64.1148V8.83349H64.6148ZM72.0068 11.1855L71.6514 11.5372L71.655 11.5409L72.0068 11.1855ZM73.1588 22.3695L73.591 22.6208L73.591 22.6208L73.1588 22.3695ZM69.8948 25.6335L69.6434 25.2012L69.6412 25.2025L69.8948 25.6335ZM64.6148 26.8335H64.1148V27.3335H64.6148V26.8335ZM69.6068 25.0095L69.8615 25.4398L69.8657 25.4372L69.6068 25.0095ZM72.4868 22.0095L72.0523 21.762L72.0499 21.7662L72.4868 22.0095ZM71.4788 11.7135L71.1172 12.0589L71.1212 12.063L71.4788 11.7135ZM65.3828 9.5535V9.0535H64.8828V9.5535H65.3828ZM65.3828 26.0895H64.8828V26.5895H65.3828V26.0895ZM64.6148 9.33349H65.3828V8.33349H64.6148V9.33349ZM65.3828 9.33349C68.1548 9.33349 70.219 10.0901 71.6514 11.5372L72.3621 10.8338C70.6905 9.14493 68.3387 8.33349 65.3828 8.33349V9.33349ZM71.655 11.5409C73.1017 12.9728 73.8588 15.0445 73.8588 17.8335H74.8588C74.8588 14.8625 74.0478 12.5022 72.3585 10.8301L71.655 11.5409ZM73.8588 17.8335C73.8588 19.3965 73.4805 20.8213 72.7265 22.1182L73.591 22.6208C74.437 21.1657 74.8588 19.5665 74.8588 17.8335H73.8588ZM72.7265 22.1182C71.9701 23.4192 70.9445 24.4448 69.6434 25.2012L70.1461 26.0657C71.597 25.2222 72.7474 24.0718 73.591 22.6208L72.7265 22.1182ZM69.6412 25.2025C68.3616 25.9553 66.9457 26.3335 65.3828 26.3335V27.3335C67.1158 27.3335 68.7079 26.9117 70.1483 26.0645L69.6412 25.2025ZM65.3828 26.3335H64.6148V27.3335H65.3828V26.3335ZM65.1148 26.8335V8.83349H64.1148V26.8335H65.1148ZM65.5748 26.5895C67.1325 26.5895 68.5651 26.2073 69.8615 25.4397L69.352 24.5793C68.2164 25.2516 66.961 25.5895 65.5748 25.5895V26.5895ZM69.8657 25.4372C71.1574 24.6554 72.1781 23.5913 72.9236 22.2528L72.0499 21.7662C71.3874 22.9557 70.4881 23.8916 69.3478 24.5817L69.8657 25.4372ZM72.9212 22.257C73.6861 20.9141 74.0668 19.4362 74.0668 17.8335H73.0668C73.0668 19.2708 72.7274 20.5769 72.0523 21.762L72.9212 22.257ZM74.0668 17.8335C74.0668 15.0917 73.3468 12.9092 71.8363 11.364L71.1212 12.063C72.3947 13.3658 73.0668 15.2633 73.0668 17.8335H74.0668ZM71.8402 11.3681C70.3449 9.80314 68.2302 9.0535 65.5748 9.0535V10.0535C68.0393 10.0535 69.8606 10.7438 71.1173 12.0589L71.8402 11.3681ZM65.5748 9.0535H65.3828V10.0535H65.5748V9.0535ZM64.8828 9.5535V26.0895H65.8828V9.5535H64.8828ZM65.3828 26.5895H65.5748V25.5895H65.3828V26.5895ZM79.1882 26.4255L78.9253 26.8508L78.9309 26.8542L79.1882 26.4255ZM77.1242 24.2895L76.6867 24.5317L76.6886 24.535L77.1242 24.2895ZM77.1242 18.5295L76.692 18.278L76.6886 18.284L77.1242 18.5295ZM79.1882 16.4415L79.4431 16.8716L79.4454 16.8702L79.1882 16.4415ZM84.9962 16.4415L84.7354 16.8682L84.7447 16.8737L84.9962 16.4415ZM87.0842 24.3375L87.5231 24.5769L87.5249 24.5736L87.0842 24.3375ZM85.0682 26.4495L85.3266 26.8775L85.3289 26.8761L85.0682 26.4495ZM84.6362 25.8495L84.3736 25.424L84.3736 25.424L84.6362 25.8495ZM86.3882 24.0015L85.9503 23.7602L85.9485 23.7634L86.3882 24.0015ZM86.3882 18.8895L86.8261 18.6482L86.8261 18.6482L86.3882 18.8895ZM84.6122 17.0175L84.3496 17.443L84.3496 17.443L84.6122 17.0175ZM79.5962 17.0415L79.8587 17.467L79.8612 17.4655L79.5962 17.0415ZM77.7962 18.9135L77.362 18.6654L77.3583 18.6722L77.7962 18.9135ZM77.7962 24.0015L77.3581 24.2429L77.3643 24.2534L77.7962 24.0015ZM79.5962 25.8495L79.3336 26.275L79.3376 26.2775L79.5962 25.8495ZM82.1402 26.7175C81.1371 26.7175 80.243 26.4753 79.4454 25.9967L78.9309 26.8542C79.8934 27.4317 80.9672 27.7175 82.1402 27.7175V26.7175ZM79.4511 26.0002C78.6411 25.4995 78.0133 24.8486 77.5598 24.044L76.6886 24.535C77.2271 25.4904 77.9753 26.2635 78.9253 26.8508L79.4511 26.0002ZM77.5616 24.0473C77.1073 23.2266 76.8802 22.3422 76.8802 21.3855H75.8802C75.8802 22.5088 76.1491 23.5603 76.6867 24.5317L77.5616 24.0473ZM76.8802 21.3855C76.8802 20.4463 77.1066 19.579 77.5598 18.775L76.6886 18.284C76.1498 19.24 75.8802 20.2767 75.8802 21.3855H76.8802ZM77.5564 18.7809C78.0261 17.9736 78.6535 17.3395 79.4431 16.8716L78.9333 16.0113C77.9949 16.5674 77.2463 17.3254 76.692 18.278L77.5564 18.7809ZM79.4454 16.8702C80.2442 16.391 81.1306 16.1495 82.1162 16.1495V15.1495C80.9578 15.1495 79.8922 15.436 78.9309 16.0127L79.4454 16.8702ZM82.1162 16.1495C83.0843 16.1495 83.9534 16.3902 84.7355 16.8681L85.2569 16.0149C84.311 15.4368 83.2601 15.1495 82.1162 15.1495V16.1495ZM84.7447 16.8737C85.5485 17.3413 86.1727 17.9731 86.6246 18.775L87.4958 18.284C86.9557 17.3259 86.2039 16.5657 85.2476 16.0093L84.7447 16.8737ZM86.6246 18.775C87.0778 19.579 87.3042 20.4463 87.3042 21.3855H88.3042C88.3042 20.2767 88.0346 19.24 87.4958 18.284L86.6246 18.775ZM87.3042 21.3855C87.3042 22.3798 87.0824 23.282 86.6434 24.1014L87.5249 24.5736C88.046 23.601 88.3042 22.5352 88.3042 21.3855H87.3042ZM86.6452 24.0981C86.2077 24.9003 85.5975 25.5401 84.8075 26.0229L85.3289 26.8761C86.2669 26.3029 87.0007 25.5347 87.5231 24.5769L86.6452 24.0981ZM84.8098 26.0215C84.0484 26.4811 83.1638 26.7175 82.1402 26.7175V27.7175C83.3246 27.7175 84.392 27.4419 85.3266 26.8775L84.8098 26.0215ZM82.1402 27.0455C83.1418 27.0455 84.0652 26.7893 84.8987 26.275L84.3736 25.424C83.7032 25.8377 82.9626 26.0455 82.1402 26.0455V27.0455ZM84.8987 26.275C85.7242 25.7657 86.3697 25.0854 86.8278 24.2396L85.9485 23.7634C85.5747 24.4536 85.0522 25.0053 84.3736 25.424L84.8987 26.275ZM86.8261 24.2428C87.3004 23.3821 87.5362 22.4427 87.5362 21.4335H86.5362C86.5362 22.2803 86.34 23.0529 85.9503 23.7602L86.8261 24.2428ZM87.5362 21.4335C87.5362 20.4388 87.2996 19.5075 86.8261 18.6482L85.9503 19.1308C86.3408 19.8395 86.5362 20.6042 86.5362 21.4335H87.5362ZM86.8261 18.6482C86.3531 17.7897 85.7011 17.1019 84.8747 16.592L84.3496 17.443C85.0273 17.8611 85.5593 18.4213 85.9503 19.1308L86.8261 18.6482ZM84.8747 16.592C84.0412 16.0777 83.1178 15.8215 82.1162 15.8215V16.8215C82.9386 16.8215 83.6792 17.0293 84.3496 17.443L84.8747 16.592ZM82.1162 15.8215C81.1112 15.8215 80.1792 16.0875 79.3312 16.6175L79.8612 17.4655C80.5491 17.0355 81.2972 16.8215 82.1162 16.8215V15.8215ZM79.3336 16.616C78.5089 17.1249 77.8506 17.8105 77.3621 18.6654L78.2303 19.1616C78.6378 18.4485 79.1795 17.8861 79.8587 17.467L79.3336 16.616ZM77.3583 18.6722C76.8848 19.5315 76.6482 20.4628 76.6482 21.4575H77.6482C77.6482 20.6282 77.8436 19.8635 78.2341 19.1548L77.3583 18.6722ZM76.6482 21.4575C76.6482 22.4522 76.8848 23.3835 77.3583 24.2428L78.2341 23.7602C77.8436 23.0515 77.6482 22.2868 77.6482 21.4575H76.6482ZM77.3643 24.2534C77.8534 25.0919 78.5113 25.7676 79.3336 26.275L79.8587 25.424C79.177 25.0033 78.635 24.4471 78.2281 23.7496L77.3643 24.2534ZM79.3376 26.2775C80.1864 26.7902 81.1243 27.0455 82.1402 27.0455V26.0455C81.3001 26.0455 80.542 25.8367 79.8547 25.4215L79.3376 26.2775ZM98.6715 16.4415L98.4107 16.8682L98.4201 16.8737L98.6715 16.4415ZM100.76 24.3375L101.198 24.5769L101.2 24.5736L100.76 24.3375ZM98.7435 26.4495L99.0019 26.8775L99.0042 26.8761L98.7435 26.4495ZM92.8875 26.4255L93.1447 25.9967L93.1447 25.9967L92.8875 26.4255ZM90.7995 24.3135L90.362 24.5557L90.3673 24.5649L90.7995 24.3135ZM90.6795 15.5295L90.2051 15.3714L90.204 15.375L90.6795 15.5295ZM92.5755 12.4575L92.2402 12.0866L92.2402 12.0866L92.5755 12.4575ZM95.8635 10.5135L96.0492 10.9777L96.0501 10.9774L95.8635 10.5135ZM100.16 8.7855H100.66V8.04545L99.9729 8.32162L100.16 8.7855ZM100.16 9.48149L100.348 9.94461L100.66 9.81783V9.48149H100.16ZM96.0315 11.1615L96.218 11.6254L96.22 11.6246L96.0315 11.1615ZM92.2875 13.8255L92.6813 14.1337L92.6834 14.1309L92.2875 13.8255ZM90.8235 18.4815L90.3243 18.4535L91.2571 18.7304L90.8235 18.4815ZM92.8635 16.4175L92.612 15.9853L92.6086 15.9873L92.8635 16.4175ZM98.3115 25.8495L98.5741 26.275L98.5741 26.275L98.3115 25.8495ZM100.064 24.0015L99.6256 23.7602L99.6239 23.7634L100.064 24.0015ZM100.064 18.8895L100.501 18.6482L100.501 18.6482L100.064 18.8895ZM98.2875 17.0175L98.0249 17.443L98.0249 17.443L98.2875 17.0175ZM93.2715 17.0415L93.5341 17.467L93.5365 17.4655L93.2715 17.0415ZM91.4715 18.9135L91.0373 18.6654L91.0336 18.6722L91.4715 18.9135ZM91.4715 24.0015L91.0335 24.2429L91.0396 24.2534L91.4715 24.0015ZM93.2715 25.8495L93.0089 26.275L93.0129 26.2775L93.2715 25.8495ZM95.7915 16.1495C96.7596 16.1495 97.6287 16.3902 98.4108 16.8681L98.9322 16.0149C97.9863 15.4368 96.9354 15.1495 95.7915 15.1495V16.1495ZM98.4201 16.8737C99.2238 17.3413 99.848 17.9731 100.3 18.775L101.171 18.284C100.631 17.3259 99.8792 16.5657 98.9229 16.0093L98.4201 16.8737ZM100.3 18.775C100.753 19.579 100.98 20.4463 100.98 21.3855H101.98C101.98 20.2767 101.71 19.24 101.171 18.284L100.3 18.775ZM100.98 21.3855C100.98 22.3798 100.758 23.282 100.319 24.1014L101.2 24.5736C101.721 23.601 101.98 22.5352 101.98 21.3855H100.98ZM100.321 24.0981C99.883 24.9003 99.2728 25.5401 98.4828 26.0229L99.0042 26.8761C99.9422 26.3029 100.676 25.5347 101.198 24.5769L100.321 24.0981ZM98.4851 26.0215C97.7237 26.4811 96.8391 26.7175 95.8155 26.7175V27.7175C96.9999 27.7175 98.0673 27.4419 99.0019 26.8775L98.4851 26.0215ZM95.8155 26.7175C94.8299 26.7175 93.9435 26.476 93.1447 25.9967L92.6303 26.8542C93.5915 27.431 94.6571 27.7175 95.8155 27.7175V26.7175ZM93.1447 25.9967C92.3365 25.5118 91.7009 24.8685 91.2317 24.062L90.3673 24.5649C90.9221 25.5185 91.6785 26.2832 92.6303 26.8542L93.1447 25.9967ZM91.2369 24.0713C90.782 23.2494 90.5555 22.3728 90.5555 21.4335H89.5555C89.5555 22.5422 89.825 23.5855 90.3621 24.5557L91.2369 24.0713ZM90.5555 21.4335V20.4975H89.5555V21.4335H90.5555ZM90.5555 20.4975C90.5555 18.4941 90.7613 16.8956 91.155 15.684L90.204 15.375C89.7657 16.7234 89.5555 18.4369 89.5555 20.4975H90.5555ZM91.1538 15.6876C91.5645 14.4556 92.1553 13.5113 92.9108 12.8284L92.2402 12.0866C91.3317 12.9077 90.6585 14.0114 90.2052 15.3714L91.1538 15.6876ZM92.9108 12.8284C93.6877 12.1262 94.7283 11.5061 96.0492 10.9777L95.6778 10.0493C94.2788 10.6089 93.1273 11.2848 92.2402 12.0866L92.9108 12.8284ZM96.0501 10.9774L100.346 9.24938L99.9729 8.32162L95.6769 10.0496L96.0501 10.9774ZM99.6595 8.7855V9.48149H100.66V8.7855H99.6595ZM99.971 9.01838L95.843 10.6984L96.22 11.6246L100.348 9.94461L99.971 9.01838ZM95.845 10.6976C94.1503 11.3788 92.8218 12.3143 91.8916 13.5201L92.6834 14.1309C93.4812 13.0967 94.6487 12.2562 96.218 11.6254L95.845 10.6976ZM91.8937 13.5173C90.9451 14.7295 90.4396 16.3936 90.3243 18.4535L91.3227 18.5095C91.4314 16.5694 91.9019 15.1295 92.6813 14.1336L91.8937 13.5173ZM91.2571 18.7304C91.7098 17.9419 92.328 17.316 93.1184 16.8476L92.6086 15.9873C91.671 16.543 90.9292 17.2931 90.3899 18.2326L91.2571 18.7304ZM93.1149 16.8497C93.9145 16.3845 94.803 16.1495 95.7915 16.1495V15.1495C94.636 15.1495 93.5725 15.4265 92.6121 15.9853L93.1149 16.8497ZM95.8155 27.0455C96.8171 27.0455 97.7405 26.7893 98.5741 26.275L98.0489 25.424C97.3785 25.8377 96.6379 26.0455 95.8155 26.0455V27.0455ZM98.5741 26.275C99.3995 25.7657 100.045 25.0854 100.503 24.2396L99.6239 23.7634C99.25 24.4536 98.7275 25.0053 98.0489 25.424L98.5741 26.275ZM100.501 24.2428C100.976 23.3821 101.212 22.4427 101.212 21.4335H100.212C100.212 22.2803 100.015 23.0529 99.6256 23.7602L100.501 24.2428ZM101.212 21.4335C101.212 20.4388 100.975 19.5075 100.501 18.6482L99.6256 19.1308C100.016 19.8395 100.212 20.6042 100.212 21.4335H101.212ZM100.501 18.6482C100.028 17.7897 99.3764 17.1019 98.5501 16.592L98.0249 17.443C98.7026 17.8611 99.2346 18.4213 99.6256 19.1308L100.501 18.6482ZM98.5501 16.592C97.7165 16.0777 96.7931 15.8215 95.7915 15.8215V16.8215C96.6139 16.8215 97.3545 17.0293 98.0249 17.443L98.5501 16.592ZM95.7915 15.8215C94.7865 15.8215 93.8546 16.0875 93.0065 16.6175L93.5365 17.4655C94.2244 17.0355 94.9725 16.8215 95.7915 16.8215V15.8215ZM93.0089 16.616C92.1842 17.1249 91.5259 17.8105 91.0374 18.6654L91.9056 19.1616C92.3131 18.4485 92.8548 17.8861 93.5341 17.467L93.0089 16.616ZM91.0336 18.6722C90.5601 19.5315 90.3235 20.4628 90.3235 21.4575H91.3235C91.3235 20.6282 91.5189 19.8635 91.9094 19.1548L91.0336 18.6722ZM90.3235 21.4575C90.3235 22.4522 90.5601 23.3835 91.0336 24.2428L91.9094 23.7602C91.5189 23.0515 91.3235 22.2868 91.3235 21.4575H90.3235ZM91.0396 24.2534C91.5287 25.0919 92.1867 25.7676 93.0089 26.275L93.5341 25.424C92.8523 25.0033 92.3103 24.4471 91.9034 23.7496L91.0396 24.2534ZM93.0129 26.2775C93.8617 26.7902 94.7996 27.0455 95.8155 27.0455V26.0455C94.9754 26.0455 94.2173 25.8367 93.5301 25.4215L93.0129 26.2775ZM103.91 16.0335V15.5335H103.41V16.0335H103.91ZM104.678 16.0335H105.178V15.5335H104.678V16.0335ZM104.678 18.6735H104.178L105.126 18.8971L104.678 18.6735ZM106.694 16.5855L106.945 17.0182L106.951 17.0149L106.694 16.5855ZM112.43 16.5375L112.176 16.9677L112.179 16.9697L112.43 16.5375ZM114.518 18.6015L114.088 18.8564L114.088 18.8564L114.518 18.6015ZM114.518 24.2655L114.088 24.0106L114.088 24.0106L114.518 24.2655ZM112.43 26.3295L112.179 25.8973L112.176 25.8994L112.43 26.3295ZM106.742 26.3055L106.489 26.7363L106.492 26.7382L106.742 26.3055ZM104.678 24.2175L105.116 23.9747L104.178 22.2879V24.2175H104.678ZM104.678 31.6335V32.1335H105.178V31.6335H104.678ZM103.91 31.6335H103.41V32.1335H103.91V31.6335ZM112.07 25.7535L112.326 26.1831L112.333 26.179L112.07 25.7535ZM113.846 23.9295L113.415 23.6776L113.413 23.6804L113.846 23.9295ZM113.846 18.9615L114.278 18.7096L114.278 18.7096L113.846 18.9615ZM112.046 17.1375L111.784 17.5631L111.791 17.567L112.046 17.1375ZM107.126 17.1375L106.868 16.7095L106.864 16.712L107.126 17.1375ZM105.302 18.9855L104.874 18.7269L104.871 18.7336L105.302 18.9855ZM105.302 23.9295L104.87 24.1815L104.877 24.192L105.302 23.9295ZM107.15 25.7535L106.892 26.1815L106.899 26.1854L107.15 25.7535ZM103.91 16.5335H104.678V15.5335H103.91V16.5335ZM104.178 16.0335V18.6735H105.178V16.0335H104.178ZM105.126 18.8971C105.51 18.1285 106.11 17.5019 106.945 17.0182L106.444 16.1528C105.455 16.7251 104.711 17.4905 104.231 18.4499L105.126 18.8971ZM106.951 17.0149C107.789 16.5145 108.662 16.2695 109.574 16.2695V15.2695C108.471 15.2695 107.423 15.5685 106.438 16.1561L106.951 17.0149ZM109.574 16.2695C110.528 16.2695 111.392 16.503 112.176 16.9676L112.685 16.1073C111.741 15.548 110.701 15.2695 109.574 15.2695V16.2695ZM112.179 16.9697C112.986 17.4394 113.62 18.0668 114.088 18.8564L114.949 18.3466C114.392 17.4082 113.635 16.6596 112.682 16.1053L112.179 16.9697ZM114.088 18.8564C114.554 19.6417 114.786 20.4973 114.786 21.4335H115.786C115.786 20.3216 115.507 19.2893 114.949 18.3466L114.088 18.8564ZM114.786 21.4335C114.786 22.3696 114.554 23.2253 114.088 24.0106L114.949 24.5204C115.507 23.5777 115.786 22.5453 115.786 21.4335H114.786ZM114.088 24.0106C113.62 24.8002 112.986 25.4276 112.179 25.8973L112.682 26.7617C113.635 26.2074 114.392 25.4588 114.949 24.5204L114.088 24.0106ZM112.176 25.8994C111.392 26.364 110.528 26.5975 109.574 26.5975V27.5975C110.701 27.5975 111.741 27.319 112.685 26.7596L112.176 25.8994ZM109.574 26.5975C108.693 26.5975 107.835 26.3603 106.993 25.8728L106.492 26.7382C107.474 27.3067 108.503 27.5975 109.574 27.5975V26.5975ZM106.996 25.8747C106.173 25.3895 105.55 24.7567 105.116 23.9747L104.241 24.4603C104.767 25.4063 105.52 26.1655 106.489 26.7363L106.996 25.8747ZM104.178 24.2175V31.6335H105.178V24.2175H104.178ZM104.678 31.1335H103.91V32.1335H104.678V31.1335ZM104.41 31.6335V16.0335H103.41V31.6335H104.41ZM109.622 26.9255C110.592 26.9255 111.497 26.6774 112.326 26.183L111.815 25.3239C111.14 25.7256 110.413 25.9255 109.622 25.9255V26.9255ZM112.333 26.179C113.154 25.6722 113.806 25.0041 114.28 24.1786L113.413 23.6804C113.023 24.3589 112.49 24.9068 111.808 25.328L112.333 26.179ZM114.278 24.1814C114.771 23.3363 115.018 22.4173 115.018 21.4335H114.018C114.018 22.2417 113.818 22.9866 113.415 23.6776L114.278 24.1814ZM115.018 21.4335C115.018 20.464 114.77 19.5532 114.278 18.7096L113.415 19.2134C113.818 19.9058 114.018 20.643 114.018 21.4335H115.018ZM114.278 18.7096C113.788 17.8696 113.128 17.2 112.302 16.7079L111.791 17.567C112.469 17.971 113.009 18.5174 113.415 19.2134L114.278 18.7096ZM112.309 16.712C111.478 16.1995 110.572 15.9415 109.598 15.9415V16.9415C110.385 16.9415 111.11 17.1475 111.784 17.563L112.309 16.712ZM109.598 15.9415C108.625 15.9415 107.712 16.1994 106.868 16.7095L107.385 17.5655C108.077 17.1476 108.811 16.9415 109.598 16.9415V15.9415ZM106.864 16.712C106.043 17.2184 105.379 17.892 104.874 18.7269L105.73 19.2441C106.154 18.543 106.706 17.9846 107.389 17.563L106.864 16.712ZM104.871 18.7336C104.378 19.5772 104.13 20.488 104.13 21.4575H105.13C105.13 20.667 105.33 19.9298 105.734 19.2374L104.871 18.7336ZM104.13 21.4575C104.13 22.427 104.378 23.3378 104.871 24.1814L105.734 23.6776C105.33 22.9852 105.13 22.248 105.13 21.4575H104.13ZM104.877 24.192C105.383 25.0127 106.057 25.677 106.892 26.1815L107.409 25.3255C106.708 24.902 106.15 24.3502 105.728 23.6669L104.877 24.192ZM106.899 26.1854C107.742 26.6775 108.653 26.9255 109.622 26.9255V25.9255C108.832 25.9255 108.095 25.7255 107.402 25.3216L106.899 26.1854ZM117.745 16.0335V15.5335H117.245V16.0335H117.745ZM118.513 16.0335H119.013V15.5335H118.513V16.0335ZM118.513 19.7535H118.013V20.2535H118.513V19.7535ZM122.281 20.6895L121.923 21.0385L121.928 21.043L122.281 20.6895ZM122.713 25.0815L122.282 24.828L122.282 24.828L122.713 25.0815ZM121.417 26.3775L121.661 26.8141L121.671 26.8085L121.417 26.3775ZM117.745 26.8335H117.245V27.3335H117.745V26.8335ZM125.329 16.0335V15.5335H124.829V16.0335H125.329ZM126.073 16.0335H126.573V15.5335H126.073V16.0335ZM126.073 26.8335V27.3335H126.573V26.8335H126.073ZM125.329 26.8335H124.829V27.3335H125.329V26.8335ZM121.633 25.3455L121.275 24.9971L121.275 24.9971L121.633 25.3455ZM121.705 21.1695L121.341 21.5115L121.346 21.5173L121.352 21.523L121.705 21.1695ZM118.513 20.4015V19.9015H118.013V20.4015H118.513ZM118.513 26.1855H118.013V26.6855H118.513V26.1855ZM117.745 16.5335H118.513V15.5335H117.745V16.5335ZM118.013 16.0335V19.7535H119.013V16.0335H118.013ZM118.513 20.2535H119.689V19.2535H118.513V20.2535ZM119.689 20.2535C120.715 20.2535 121.434 20.5366 121.923 21.0384L122.639 20.3406C121.912 19.5944 120.904 19.2535 119.689 19.2535V20.2535ZM121.928 21.043C122.415 21.5301 122.693 22.258 122.693 23.3055H123.693C123.693 22.081 123.364 21.0649 122.635 20.3359L121.928 21.043ZM122.693 23.3055C122.693 23.8577 122.556 24.362 122.282 24.828L123.144 25.335C123.51 24.713 123.693 24.0333 123.693 23.3055H122.693ZM122.282 24.828C122.005 25.2987 121.635 25.6696 121.164 25.9465L121.671 26.8085C122.288 26.4454 122.781 25.9523 123.144 25.335L122.282 24.828ZM121.173 25.941C120.708 26.2012 120.193 26.3335 119.617 26.3335V27.3335C120.354 27.3335 121.039 27.1618 121.661 26.814L121.173 25.941ZM119.617 26.3335H117.745V27.3335H119.617V26.3335ZM118.245 26.8335V16.0335H117.245V26.8335H118.245ZM125.329 16.5335H126.073V15.5335H125.329V16.5335ZM125.573 16.0335V26.8335H126.573V16.0335H125.573ZM126.073 26.3335H125.329V27.3335H126.073V26.3335ZM125.829 26.8335V16.0335H124.829V26.8335H125.829ZM119.641 26.6855C120.56 26.6855 121.353 26.3513 121.992 25.6939L121.275 24.9971C120.825 25.4597 120.291 25.6855 119.641 25.6855V26.6855ZM121.992 25.6939C122.629 25.038 122.949 24.232 122.949 23.3055H121.949C121.949 23.979 121.726 24.533 121.275 24.9971L121.992 25.6939ZM122.949 23.3055C122.949 22.2893 122.676 21.433 122.059 20.8159L121.352 21.523C121.727 21.898 121.949 22.4657 121.949 23.3055H122.949ZM122.07 20.8275C121.471 20.1885 120.635 19.9015 119.641 19.9015V20.9015C120.44 20.9015 120.98 21.1265 121.341 21.5115L122.07 20.8275ZM119.641 19.9015H118.513V20.9015H119.641V19.9015ZM118.013 20.4015V26.1855H119.013V20.4015H118.013ZM118.513 26.6855H119.641V25.6855H118.513V26.6855ZM129.675 16.0335V15.5335H129.175V16.0335H129.675ZM130.419 16.0335H130.919V15.5335H130.419V16.0335ZM130.419 25.7535H129.919V27.1823L130.81 26.0653L130.419 25.7535ZM138.171 16.0335V15.5335H137.93L137.78 15.7217L138.171 16.0335ZM138.867 16.0335H139.367V15.5335H138.867V16.0335ZM138.867 26.8335V27.3335H139.367V26.8335H138.867ZM138.123 26.8335H137.623V27.3335H138.123V26.8335ZM138.123 17.1375H138.623V15.7149L137.733 16.8247L138.123 17.1375ZM130.347 26.8335V27.3335H130.587L130.737 27.1463L130.347 26.8335ZM129.675 26.8335H129.175V27.3335H129.675V26.8335ZM131.763 12.1455L131.435 12.523L131.435 12.523L131.763 12.1455ZM130.803 10.1535V9.65349H130.283L130.303 10.1735L130.803 10.1535ZM131.475 10.1535L131.973 10.1141L131.937 9.65349H131.475V10.1535ZM132.291 11.6655L131.977 12.0547L131.983 12.0595L132.291 11.6655ZM136.179 11.6655L135.871 11.2714L135.865 11.2763L136.179 11.6655ZM137.067 10.1535V9.65349H136.628L136.571 10.0883L137.067 10.1535ZM137.739 10.1535L138.239 10.1739L138.26 9.65349H137.739V10.1535ZM136.755 12.1455L137.078 12.5272L137.084 12.5224L136.755 12.1455ZM129.675 16.5335H130.419V15.5335H129.675V16.5335ZM129.919 16.0335V25.7535H130.919V16.0335H129.919ZM130.81 26.0653L138.562 16.3453L137.78 15.7217L130.028 25.4417L130.81 26.0653ZM138.171 16.5335H138.867V15.5335H138.171V16.5335ZM138.367 16.0335V26.8335H139.367V16.0335H138.367ZM138.867 26.3335H138.123V27.3335H138.867V26.3335ZM138.623 26.8335V17.1375H137.623V26.8335H138.623ZM137.733 16.8247L129.957 26.5207L130.737 27.1463L138.513 17.4503L137.733 16.8247ZM130.347 26.3335H129.675V27.3335H130.347V26.3335ZM130.175 26.8335V16.0335H129.175V26.8335H130.175ZM134.283 12.4375C133.291 12.4375 132.581 12.194 132.091 11.768L131.435 12.523C132.161 13.153 133.131 13.4375 134.283 13.4375V12.4375ZM132.091 11.768C131.586 11.3298 131.329 10.7948 131.303 10.1335L130.303 10.1735C130.341 11.1121 130.724 11.9052 131.435 12.523L132.091 11.768ZM130.803 10.6535H131.475V9.65349H130.803V10.6535ZM130.977 10.1928C131.036 10.9446 131.38 11.5728 131.977 12.0547L132.605 11.2763C132.21 10.9582 132.01 10.5784 131.973 10.1141L130.977 10.1928ZM131.983 12.0595C132.602 12.5429 133.374 12.7655 134.259 12.7655V11.7655C133.544 11.7655 133.004 11.5881 132.599 11.2715L131.983 12.0595ZM134.259 12.7655C135.13 12.7655 135.889 12.5417 136.493 12.0547L135.865 11.2763C135.477 11.5893 134.956 11.7655 134.259 11.7655V12.7655ZM136.487 12.0595C137.095 11.5841 137.465 10.965 137.563 10.2187L136.571 10.0883C136.509 10.558 136.287 10.9469 135.871 11.2715L136.487 12.0595ZM137.067 10.6535H137.739V9.65349H137.067V10.6535ZM137.239 10.1331C137.213 10.7716 136.953 11.3093 136.426 11.7686L137.084 12.5224C137.805 11.8937 138.201 11.1034 138.239 10.1739L137.239 10.1331ZM136.432 11.7638C135.919 12.1976 135.22 12.4375 134.283 12.4375V13.4375C135.394 13.4375 136.343 13.1494 137.078 12.5272L136.432 11.7638ZM64.6148 31.8335V31.3335H64.1148V31.8335H64.6148ZM72.0068 34.1855L71.6514 34.5372L71.655 34.5409L72.0068 34.1855ZM73.1588 45.3695L73.591 45.6208L73.591 45.6208L73.1588 45.3695ZM69.8948 48.6335L69.6434 48.2012L69.6412 48.2025L69.8948 48.6335ZM64.6148 49.8335H64.1148V50.3335H64.6148V49.8335ZM69.6068 48.0095L69.8615 48.4398L69.8657 48.4372L69.6068 48.0095ZM72.4868 45.0095L72.0523 44.762L72.0499 44.7662L72.4868 45.0095ZM71.4788 34.7135L71.1172 35.0589L71.1212 35.063L71.4788 34.7135ZM65.3828 32.5535V32.0535H64.8828V32.5535H65.3828ZM65.3828 49.0895H64.8828V49.5895H65.3828V49.0895ZM64.6148 32.3335H65.3828V31.3335H64.6148V32.3335ZM65.3828 32.3335C68.1548 32.3335 70.219 33.0901 71.6514 34.5372L72.3621 33.8338C70.6905 32.1449 68.3387 31.3335 65.3828 31.3335V32.3335ZM71.655 34.5409C73.1017 35.9728 73.8588 38.0445 73.8588 40.8335H74.8588C74.8588 37.8625 74.0478 35.5022 72.3585 33.8301L71.655 34.5409ZM73.8588 40.8335C73.8588 42.3965 73.4805 43.8213 72.7265 45.1182L73.591 45.6208C74.437 44.1657 74.8588 42.5665 74.8588 40.8335H73.8588ZM72.7265 45.1182C71.9701 46.4192 70.9445 47.4448 69.6434 48.2012L70.1461 49.0657C71.597 48.2222 72.7474 47.0718 73.591 45.6208L72.7265 45.1182ZM69.6412 48.2025C68.3616 48.9553 66.9457 49.3335 65.3828 49.3335V50.3335C67.1158 50.3335 68.7079 49.9117 70.1483 49.0645L69.6412 48.2025ZM65.3828 49.3335H64.6148V50.3335H65.3828V49.3335ZM65.1148 49.8335V31.8335H64.1148V49.8335H65.1148ZM65.5748 49.5895C67.1325 49.5895 68.5651 49.2073 69.8615 48.4397L69.352 47.5793C68.2164 48.2516 66.961 48.5895 65.5748 48.5895V49.5895ZM69.8657 48.4372C71.1574 47.6554 72.1781 46.5913 72.9236 45.2528L72.0499 44.7662C71.3874 45.9557 70.4881 46.8916 69.3478 47.5817L69.8657 48.4372ZM72.9212 45.257C73.6861 43.9141 74.0668 42.4362 74.0668 40.8335H73.0668C73.0668 42.2708 72.7274 43.5769 72.0523 44.762L72.9212 45.257ZM74.0668 40.8335C74.0668 38.0917 73.3468 35.9092 71.8363 34.364L71.1212 35.063C72.3947 36.3658 73.0668 38.2633 73.0668 40.8335H74.0668ZM71.8402 34.3681C70.3449 32.8031 68.2302 32.0535 65.5748 32.0535V33.0535C68.0393 33.0535 69.8606 33.7438 71.1173 35.0589L71.8402 34.3681ZM65.5748 32.0535H65.3828V33.0535H65.5748V32.0535ZM64.8828 32.5535V49.0895H65.8828V32.5535H64.8828ZM65.3828 49.5895H65.5748V48.5895H65.3828V49.5895ZM79.1882 49.4255L78.9253 49.8508L78.9309 49.8542L79.1882 49.4255ZM77.1242 47.2895L76.6867 47.5317L76.6886 47.535L77.1242 47.2895ZM77.1242 41.5295L76.692 41.278L76.6886 41.284L77.1242 41.5295ZM79.1882 39.4415L79.4431 39.8716L79.4454 39.8702L79.1882 39.4415ZM84.9962 39.4415L84.7354 39.8682L84.7447 39.8737L84.9962 39.4415ZM87.0842 47.3375L87.5231 47.5769L87.5249 47.5736L87.0842 47.3375ZM85.0682 49.4495L85.3266 49.8775L85.3289 49.8761L85.0682 49.4495ZM84.6362 48.8495L84.3736 48.424L84.3736 48.424L84.6362 48.8495ZM86.3882 47.0015L85.9503 46.7602L85.9485 46.7634L86.3882 47.0015ZM86.3882 41.8895L86.8261 41.6482L86.8261 41.6482L86.3882 41.8895ZM84.6122 40.0175L84.3496 40.443L84.3496 40.443L84.6122 40.0175ZM79.5962 40.0415L79.8587 40.467L79.8612 40.4655L79.5962 40.0415ZM77.7962 41.9135L77.362 41.6654L77.3583 41.6722L77.7962 41.9135ZM77.7962 47.0015L77.3581 47.2429L77.3643 47.2534L77.7962 47.0015ZM79.5962 48.8495L79.3336 49.275L79.3376 49.2775L79.5962 48.8495ZM82.1402 49.7175C81.1371 49.7175 80.243 49.4753 79.4454 48.9967L78.9309 49.8542C79.8934 50.4317 80.9672 50.7175 82.1402 50.7175V49.7175ZM79.4511 49.0002C78.6411 48.4995 78.0133 47.8486 77.5598 47.044L76.6886 47.535C77.2271 48.4904 77.9753 49.2635 78.9253 49.8508L79.4511 49.0002ZM77.5616 47.0473C77.1073 46.2266 76.8802 45.3422 76.8802 44.3855H75.8802C75.8802 45.5088 76.1491 46.5603 76.6867 47.5317L77.5616 47.0473ZM76.8802 44.3855C76.8802 43.4463 77.1066 42.579 77.5598 41.775L76.6886 41.284C76.1498 42.24 75.8802 43.2767 75.8802 44.3855H76.8802ZM77.5564 41.7809C78.0261 40.9736 78.6535 40.3395 79.4431 39.8716L78.9333 39.0113C77.9949 39.5674 77.2463 40.3254 76.692 41.278L77.5564 41.7809ZM79.4454 39.8702C80.2442 39.391 81.1306 39.1495 82.1162 39.1495V38.1495C80.9578 38.1495 79.8922 38.436 78.9309 39.0127L79.4454 39.8702ZM82.1162 39.1495C83.0843 39.1495 83.9534 39.3902 84.7355 39.8681L85.2569 39.0149C84.311 38.4368 83.2601 38.1495 82.1162 38.1495V39.1495ZM84.7447 39.8737C85.5485 40.3413 86.1727 40.9731 86.6246 41.775L87.4958 41.284C86.9557 40.3259 86.2039 39.5657 85.2476 39.0093L84.7447 39.8737ZM86.6246 41.775C87.0778 42.579 87.3042 43.4463 87.3042 44.3855H88.3042C88.3042 43.2767 88.0346 42.24 87.4958 41.284L86.6246 41.775ZM87.3042 44.3855C87.3042 45.3798 87.0824 46.282 86.6434 47.1014L87.5249 47.5736C88.046 46.601 88.3042 45.5352 88.3042 44.3855H87.3042ZM86.6452 47.0981C86.2077 47.9003 85.5975 48.5401 84.8075 49.0229L85.3289 49.8761C86.2669 49.3029 87.0007 48.5347 87.5231 47.5769L86.6452 47.0981ZM84.8098 49.0215C84.0484 49.4811 83.1638 49.7175 82.1402 49.7175V50.7175C83.3246 50.7175 84.392 50.4419 85.3266 49.8775L84.8098 49.0215ZM82.1402 50.0455C83.1418 50.0455 84.0652 49.7893 84.8987 49.275L84.3736 48.424C83.7032 48.8377 82.9626 49.0455 82.1402 49.0455V50.0455ZM84.8987 49.275C85.7242 48.7657 86.3697 48.0854 86.8278 47.2396L85.9485 46.7634C85.5747 47.4536 85.0522 48.0053 84.3736 48.424L84.8987 49.275ZM86.8261 47.2428C87.3004 46.3821 87.5362 45.4427 87.5362 44.4335H86.5362C86.5362 45.2803 86.34 46.0529 85.9503 46.7602L86.8261 47.2428ZM87.5362 44.4335C87.5362 43.4388 87.2996 42.5075 86.8261 41.6482L85.9503 42.1308C86.3408 42.8395 86.5362 43.6042 86.5362 44.4335H87.5362ZM86.8261 41.6482C86.3531 40.7897 85.7011 40.1019 84.8747 39.592L84.3496 40.443C85.0273 40.8611 85.5593 41.4213 85.9503 42.1308L86.8261 41.6482ZM84.8747 39.592C84.0412 39.0777 83.1178 38.8215 82.1162 38.8215V39.8215C82.9386 39.8215 83.6792 40.0293 84.3496 40.443L84.8747 39.592ZM82.1162 38.8215C81.1112 38.8215 80.1792 39.0875 79.3312 39.6175L79.8612 40.4655C80.5491 40.0355 81.2972 39.8215 82.1162 39.8215V38.8215ZM79.3336 39.616C78.5089 40.1249 77.8506 40.8105 77.3621 41.6654L78.2303 42.1616C78.6378 41.4485 79.1795 40.8861 79.8587 40.467L79.3336 39.616ZM77.3583 41.6722C76.8848 42.5315 76.6482 43.4628 76.6482 44.4575H77.6482C77.6482 43.6282 77.8436 42.8635 78.2341 42.1548L77.3583 41.6722ZM76.6482 44.4575C76.6482 45.4522 76.8848 46.3835 77.3583 47.2428L78.2341 46.7602C77.8436 46.0515 77.6482 45.2868 77.6482 44.4575H76.6482ZM77.3643 47.2534C77.8534 48.0919 78.5113 48.7676 79.3336 49.275L79.8587 48.424C79.177 48.0033 78.635 47.4471 78.2281 46.7496L77.3643 47.2534ZM79.3376 49.2775C80.1864 49.7902 81.1243 50.0455 82.1402 50.0455V49.0455C81.3001 49.0455 80.542 48.8367 79.8547 48.4215L79.3376 49.2775ZM90.2531 39.0335V38.5335H89.7531V39.0335H90.2531ZM91.0211 39.0335H91.5211V38.5335H91.0211V39.0335ZM91.0211 42.7775H90.5211V43.8805L91.3507 43.1535L91.0211 42.7775ZM95.2931 39.0335V38.5335H95.105L94.9636 38.6575L95.2931 39.0335ZM96.2771 39.0335L96.6061 39.41L97.6092 38.5335H96.2771V39.0335ZM91.3331 43.3535L91.0041 42.977L90.6105 43.321L90.9716 43.6989L91.3331 43.3535ZM97.5251 49.8335V50.3335H98.6945L97.8866 49.4881L97.5251 49.8335ZM96.4931 49.8335L96.1285 50.1756L96.2766 50.3335H96.4931V49.8335ZM91.0211 44.0015L91.3858 43.6594L90.5211 42.7379V44.0015H91.0211ZM91.0211 49.8335V50.3335H91.5211V49.8335H91.0211ZM90.2531 49.8335H89.7531V50.3335H90.2531V49.8335ZM90.2531 39.5335H91.0211V38.5335H90.2531V39.5335ZM90.5211 39.0335V42.7775H91.5211V39.0335H90.5211ZM91.3507 43.1535L95.6227 39.4095L94.9636 38.6575L90.6916 42.4015L91.3507 43.1535ZM95.2931 39.5335H96.2771V38.5335H95.2931V39.5335ZM95.9481 38.657L91.0041 42.977L91.6621 43.73L96.6061 39.41L95.9481 38.657ZM90.9716 43.6989L97.1636 50.1789L97.8866 49.4881L91.6946 43.0081L90.9716 43.6989ZM97.5251 49.3335H96.4931V50.3335H97.5251V49.3335ZM96.8578 49.4914L91.3858 43.6594L90.6565 44.3436L96.1285 50.1756L96.8578 49.4914ZM90.5211 44.0015V49.8335H91.5211V44.0015H90.5211ZM91.0211 49.3335H90.2531V50.3335H91.0211V49.3335ZM90.7531 49.8335V39.0335H89.7531V49.8335H90.7531ZM102.246 39.7295H102.746V39.2295H102.246V39.7295ZM98.1178 39.7295H97.6178V40.2295H98.1178V39.7295ZM98.1178 39.0575V38.5575H97.6178V39.0575H98.1178ZM107.142 39.0575H107.642V38.5575H107.142V39.0575ZM107.142 39.7295V40.2295H107.642V39.7295H107.142ZM103.014 39.7295V39.2295H102.514V39.7295H103.014ZM103.014 49.8335V50.3335H103.514V49.8335H103.014ZM102.246 49.8335H101.746V50.3335H102.246V49.8335ZM102.246 39.2295H98.1178V40.2295H102.246V39.2295ZM98.6178 39.7295V39.0575H97.6178V39.7295H98.6178ZM98.1178 39.5575H107.142V38.5575H98.1178V39.5575ZM106.642 39.0575V39.7295H107.642V39.0575H106.642ZM107.142 39.2295H103.014V40.2295H107.142V39.2295ZM102.514 39.7295V49.8335H103.514V39.7295H102.514ZM103.014 49.3335H102.246V50.3335H103.014V49.3335ZM102.746 49.8335V39.7295H101.746V49.8335H102.746ZM110.243 49.4255L109.98 49.8508L109.986 49.8542L110.243 49.4255ZM108.179 47.2895L107.741 47.5317L107.743 47.535L108.179 47.2895ZM108.179 41.5295L107.747 41.278L107.743 41.284L108.179 41.5295ZM110.243 39.4415L110.498 39.8716L110.5 39.8702L110.243 39.4415ZM116.051 39.4415L115.79 39.8682L115.799 39.8737L116.051 39.4415ZM118.139 47.3375L118.578 47.5769L118.58 47.5736L118.139 47.3375ZM116.123 49.4495L116.381 49.8775L116.384 49.8761L116.123 49.4495ZM115.691 48.8495L115.428 48.424L115.428 48.424L115.691 48.8495ZM117.443 47.0015L117.005 46.7602L117.003 46.7634L117.443 47.0015ZM117.443 41.8895L117.881 41.6482L117.881 41.6482L117.443 41.8895ZM115.667 40.0175L115.404 40.443L115.404 40.443L115.667 40.0175ZM110.651 40.0415L110.913 40.467L110.916 40.4655L110.651 40.0415ZM108.851 41.9135L108.417 41.6654L108.413 41.6722L108.851 41.9135ZM108.851 47.0015L108.413 47.2429L108.419 47.2534L108.851 47.0015ZM110.651 48.8495L110.388 49.275L110.392 49.2775L110.651 48.8495ZM113.195 49.7175C112.192 49.7175 111.298 49.4753 110.5 48.9967L109.986 49.8542C110.948 50.4317 112.022 50.7175 113.195 50.7175V49.7175ZM110.506 49.0002C109.696 48.4995 109.068 47.8486 108.614 47.044L107.743 47.535C108.282 48.4904 109.03 49.2635 109.98 49.8508L110.506 49.0002ZM108.616 47.0473C108.162 46.2266 107.935 45.3422 107.935 44.3855H106.935C106.935 45.5088 107.204 46.5603 107.741 47.5317L108.616 47.0473ZM107.935 44.3855C107.935 43.4463 108.161 42.579 108.614 41.775L107.743 41.284C107.204 42.24 106.935 43.2767 106.935 44.3855H107.935ZM108.611 41.7809C109.081 40.9736 109.708 40.3395 110.498 39.8716L109.988 39.0113C109.05 39.5674 108.301 40.3254 107.747 41.278L108.611 41.7809ZM110.5 39.8702C111.299 39.391 112.185 39.1495 113.171 39.1495V38.1495C112.012 38.1495 110.947 38.436 109.986 39.0127L110.5 39.8702ZM113.171 39.1495C114.139 39.1495 115.008 39.3902 115.79 39.8681L116.312 39.0149C115.366 38.4368 114.315 38.1495 113.171 38.1495V39.1495ZM115.799 39.8737C116.603 40.3413 117.227 40.9731 117.679 41.775L118.55 41.284C118.01 40.3259 117.259 39.5657 116.302 39.0093L115.799 39.8737ZM117.679 41.775C118.132 42.579 118.359 43.4463 118.359 44.3855H119.359C119.359 43.2767 119.089 42.24 118.55 41.284L117.679 41.775ZM118.359 44.3855C118.359 45.3798 118.137 46.282 117.698 47.1014L118.58 47.5736C119.101 46.601 119.359 45.5352 119.359 44.3855H118.359ZM117.7 47.0981C117.262 47.9003 116.652 48.5401 115.862 49.0229L116.384 49.8761C117.322 49.3029 118.055 48.5347 118.578 47.5769L117.7 47.0981ZM115.864 49.0215C115.103 49.4811 114.218 49.7175 113.195 49.7175V50.7175C114.379 50.7175 115.447 50.4419 116.381 49.8775L115.864 49.0215ZM113.195 50.0455C114.196 50.0455 115.12 49.7893 115.953 49.275L115.428 48.424C114.758 48.8377 114.017 49.0455 113.195 49.0455V50.0455ZM115.953 49.275C116.779 48.7657 117.424 48.0854 117.883 47.2396L117.003 46.7634C116.629 47.4536 116.107 48.0053 115.428 48.424L115.953 49.275ZM117.881 47.2428C118.355 46.3821 118.591 45.4427 118.591 44.4335H117.591C117.591 45.2803 117.395 46.0529 117.005 46.7602L117.881 47.2428ZM118.591 44.4335C118.591 43.4388 118.354 42.5075 117.881 41.6482L117.005 42.1308C117.395 42.8395 117.591 43.6042 117.591 44.4335H118.591ZM117.881 41.6482C117.408 40.7897 116.756 40.1019 115.929 39.592L115.404 40.443C116.082 40.8611 116.614 41.4213 117.005 42.1308L117.881 41.6482ZM115.929 39.592C115.096 39.0777 114.172 38.8215 113.171 38.8215V39.8215C113.993 39.8215 114.734 40.0293 115.404 40.443L115.929 39.592ZM113.171 38.8215C112.166 38.8215 111.234 39.0875 110.386 39.6175L110.916 40.4655C111.604 40.0355 112.352 39.8215 113.171 39.8215V38.8215ZM110.388 39.616C109.564 40.1249 108.905 40.8105 108.417 41.6654L109.285 42.1616C109.692 41.4485 110.234 40.8861 110.913 40.467L110.388 39.616ZM108.413 41.6722C107.939 42.5315 107.703 43.4628 107.703 44.4575H108.703C108.703 43.6282 108.898 42.8635 109.289 42.1548L108.413 41.6722ZM107.703 44.4575C107.703 45.4522 107.939 46.3835 108.413 47.2428L109.289 46.7602C108.898 46.0515 108.703 45.2868 108.703 44.4575H107.703ZM108.419 47.2534C108.908 48.0919 109.566 48.7676 110.388 49.275L110.913 48.424C110.232 48.0033 109.69 47.4471 109.283 46.7496L108.419 47.2534ZM110.392 49.2775C111.241 49.7902 112.179 50.0455 113.195 50.0455V49.0455C112.355 49.0455 111.597 48.8367 110.909 48.4215L110.392 49.2775ZM121.254 39.0335V38.5335H120.754V39.0335H121.254ZM122.022 39.0335H122.522V38.5335H122.022V39.0335ZM122.022 41.6735H121.522L122.469 41.8971L122.022 41.6735ZM124.038 39.5855L124.289 40.0182L124.294 40.0149L124.038 39.5855ZM129.774 39.5375L129.519 39.9677L129.523 39.9697L129.774 39.5375ZM131.862 41.6015L131.432 41.8564L131.432 41.8564L131.862 41.6015ZM131.862 47.2655L131.432 47.0106L131.432 47.0106L131.862 47.2655ZM129.774 49.3295L129.523 48.8973L129.519 48.8994L129.774 49.3295ZM124.086 49.3055L123.832 49.7363L123.836 49.7382L124.086 49.3055ZM122.022 47.2175L122.459 46.9747L121.522 45.2879V47.2175H122.022ZM122.022 54.6335V55.1335H122.522V54.6335H122.022ZM121.254 54.6335H120.754V55.1335H121.254V54.6335ZM129.414 48.7535L129.67 49.1831L129.677 49.179L129.414 48.7535ZM131.19 46.9295L130.758 46.6776L130.757 46.6804L131.19 46.9295ZM131.19 41.9615L131.622 41.7096L131.622 41.7096L131.19 41.9615ZM129.39 40.1375L129.128 40.5631L129.134 40.567L129.39 40.1375ZM124.47 40.1375L124.212 39.7095L124.208 39.712L124.47 40.1375ZM122.646 41.9855L122.218 41.7269L122.214 41.7336L122.646 41.9855ZM122.646 46.9295L122.214 47.1815L122.221 47.192L122.646 46.9295ZM124.494 48.7535L124.236 49.1815L124.242 49.1854L124.494 48.7535ZM121.254 39.5335H122.022V38.5335H121.254V39.5335ZM121.522 39.0335V41.6735H122.522V39.0335H121.522ZM122.469 41.8971C122.854 41.1285 123.453 40.5019 124.289 40.0182L123.788 39.1528C122.799 39.7251 122.055 40.4905 121.575 41.4499L122.469 41.8971ZM124.294 40.0149C125.133 39.5145 126.005 39.2695 126.918 39.2695V38.2695C125.815 38.2695 124.767 38.5685 123.782 39.1561L124.294 40.0149ZM126.918 39.2695C127.872 39.2695 128.735 39.503 129.519 39.9676L130.029 39.1073C129.085 38.548 128.045 38.2695 126.918 38.2695V39.2695ZM129.523 39.9697C130.33 40.4394 130.964 41.0668 131.432 41.8564L132.292 41.3466C131.736 40.4082 130.978 39.6596 130.026 39.1053L129.523 39.9697ZM131.432 41.8564C131.897 42.6417 132.13 43.4973 132.13 44.4335H133.13C133.13 43.3216 132.851 42.2893 132.292 41.3466L131.432 41.8564ZM132.13 44.4335C132.13 45.3696 131.897 46.2253 131.432 47.0106L132.292 47.5204C132.851 46.5777 133.13 45.5453 133.13 44.4335H132.13ZM131.432 47.0106C130.964 47.8002 130.33 48.4276 129.523 48.8973L130.026 49.7617C130.978 49.2074 131.736 48.4588 132.292 47.5204L131.432 47.0106ZM129.519 48.8994C128.735 49.364 127.872 49.5975 126.918 49.5975V50.5975C128.045 50.5975 129.085 50.319 130.029 49.7596L129.519 48.8994ZM126.918 49.5975C126.037 49.5975 125.179 49.3603 124.337 48.8728L123.836 49.7382C124.818 50.3067 125.847 50.5975 126.918 50.5975V49.5975ZM124.34 48.8747C123.517 48.3895 122.894 47.7567 122.459 46.9747L121.585 47.4603C122.111 48.4063 122.864 49.1655 123.832 49.7363L124.34 48.8747ZM121.522 47.2175V54.6335H122.522V47.2175H121.522ZM122.022 54.1335H121.254V55.1335H122.022V54.1335ZM121.754 54.6335V39.0335H120.754V54.6335H121.754ZM126.966 49.9255C127.936 49.9255 128.84 49.6774 129.67 49.183L129.158 48.3239C128.484 48.7256 127.757 48.9255 126.966 48.9255V49.9255ZM129.677 49.179C130.498 48.6722 131.149 48.0041 131.624 47.1786L130.757 46.6804C130.367 47.3589 129.834 47.9068 129.152 48.328L129.677 49.179ZM131.622 47.1814C132.115 46.3363 132.362 45.4173 132.362 44.4335H131.362C131.362 45.2417 131.161 45.9866 130.758 46.6776L131.622 47.1814ZM132.362 44.4335C132.362 43.464 132.114 42.5532 131.622 41.7096L130.758 42.2134C131.162 42.9058 131.362 43.643 131.362 44.4335H132.362ZM131.622 41.7096C131.132 40.8696 130.472 40.2 129.646 39.7079L129.134 40.567C129.812 40.971 130.352 41.5174 130.758 42.2134L131.622 41.7096ZM129.653 39.712C128.822 39.1995 127.915 38.9415 126.942 38.9415V39.9415C127.729 39.9415 128.454 40.1475 129.128 40.563L129.653 39.712ZM126.942 38.9415C125.969 38.9415 125.056 39.1994 124.212 39.7095L124.729 40.5655C125.42 40.1476 126.155 39.9415 126.942 39.9415V38.9415ZM124.208 39.712C123.387 40.2184 122.723 40.892 122.218 41.7269L123.074 42.2441C123.498 41.543 124.049 40.9846 124.733 40.563L124.208 39.712ZM122.214 41.7336C121.722 42.5772 121.474 43.488 121.474 44.4575H122.474C122.474 43.667 122.674 42.9298 123.078 42.2374L122.214 41.7336ZM121.474 44.4575C121.474 45.427 121.722 46.3378 122.214 47.1814L123.078 46.6776C122.674 45.9852 122.474 45.248 122.474 44.4575H121.474ZM122.221 47.192C122.727 48.0127 123.401 48.677 124.236 49.1815L124.753 48.3255C124.052 47.902 123.493 47.3502 123.072 46.6669L122.221 47.192ZM124.242 49.1854C125.086 49.6775 125.997 49.9255 126.966 49.9255V48.9255C126.176 48.9255 125.438 48.7255 124.746 48.3216L124.242 49.1854Z" fill="#1D97C1"/>
</svg>
