<svg width="161" height="23" viewBox="0 0 161 23" fill="none" xmlns="http://www.w3.org/2000/svg">
<path d="M7.29159 1.91675C4.16659 1.91675 2.08325 4.79175 2.08325 7.66675C2.08325 9.68883 3.12492 12.4584 4.16659 13.4167C5.20825 14.3751 6.24992 21.0834 8.33325 21.0834C13.0624 21.0834 10.4166 14.3751 12.4999 14.3751C14.5833 14.3751 11.9374 21.0834 16.6666 21.0834C18.7499 21.0834 19.7916 14.3751 20.8333 13.4167C21.8749 12.4584 22.9166 9.68883 22.9166 7.66675C22.9166 4.79175 20.8333 1.91675 17.7083 1.91675C14.5833 1.91675 14.5833 2.87508 12.4999 2.87508C10.4166 2.87508 10.4166 1.91675 7.29159 1.91675Z" fill="#FFD875"/>
<path d="M42 1.91675C39 1.91675 37 4.79175 37 7.66675C37 9.68883 38 12.4584 39 13.4167C40 14.3751 41 21.0834 43 21.0834C47.54 21.0834 45 14.3751 47 14.3751C49 14.3751 46.46 21.0834 51 21.0834C53 21.0834 54 14.3751 55 13.4167C56 12.4584 57 9.68883 57 7.66675C57 4.79175 55 1.91675 52 1.91675C49 1.91675 49 2.87508 47 2.87508C45 2.87508 45 1.91675 42 1.91675Z" fill="#FFD875"/>
<path d="M75.7084 1.91675C72.8334 1.91675 70.9167 4.79175 70.9167 7.66675C70.9167 9.68883 71.8751 12.4584 72.8334 13.4167C73.7917 14.3751 74.7501 21.0834 76.6667 21.0834C81.0176 21.0834 78.5834 14.3751 80.5001 14.3751C82.4167 14.3751 79.9826 21.0834 84.3334 21.0834C86.2501 21.0834 87.2084 14.3751 88.1667 13.4167C89.1251 12.4584 90.0834 9.68883 90.0834 7.66675C90.0834 4.79175 88.1667 1.91675 85.2917 1.91675C82.4167 1.91675 82.4167 2.87508 80.5001 2.87508C78.5834 2.87508 78.5834 1.91675 75.7084 1.91675Z" fill="#FFD875"/>
<path d="M109 1.91675C106 1.91675 104 4.79175 104 7.66675C104 9.68883 105 12.4584 106 13.4167C107 14.3751 108 21.0834 110 21.0834C114.54 21.0834 112 14.3751 114 14.3751C116 14.3751 113.46 21.0834 118 21.0834C120 21.0834 121 14.3751 122 13.4167C123 12.4584 124 9.68883 124 7.66675C124 4.79175 122 1.91675 119 1.91675C116 1.91675 116 2.87508 114 2.87508C112 2.87508 112 1.91675 109 1.91675Z" fill="#FFD875"/>
<path d="M143.292 1.91675C140.167 1.91675 138.083 4.79175 138.083 7.66675C138.083 9.68883 139.125 12.4584 140.167 13.4167C141.208 14.3751 142.25 21.0834 144.333 21.0834C149.062 21.0834 146.417 14.3751 148.5 14.3751C150.583 14.3751 147.937 21.0834 152.667 21.0834C154.75 21.0834 155.792 14.3751 156.833 13.4167C157.875 12.4584 158.917 9.68883 158.917 7.66675C158.917 4.79175 156.833 1.91675 153.708 1.91675C150.583 1.91675 150.583 2.87508 148.5 2.87508C146.417 2.87508 146.417 1.91675 143.292 1.91675Z" fill="#FFD875"/>
</svg>
