<svg width="51" height="50" viewBox="0 0 51 50" fill="none" xmlns="http://www.w3.org/2000/svg">
<path d="M25.585 0.78125C12.2053 0.78125 1.36621 11.6219 1.36621 25C1.36621 38.3781 12.2068 49.2188 25.585 49.2188C38.9646 49.2188 49.8037 38.3781 49.8037 25C49.8037 11.6219 38.9631 0.78125 25.585 0.78125ZM37.4803 17.3734L33.5053 36.1047C33.2115 37.4328 32.4209 37.7547 31.3178 37.1297L25.2631 32.6672L22.3428 35.4797C22.0209 35.8016 21.7475 36.075 21.1225 36.075L21.5521 29.9125L32.7725 19.775C33.2615 19.3453 32.6646 19.1016 32.0193 19.5312L18.1521 28.2609L12.1756 26.3953C10.8771 25.9859 10.8475 25.0969 12.449 24.4719L35.799 15.4672C36.8834 15.0766 37.8303 15.7312 37.4787 17.3719L37.4803 17.3734Z" fill="#1D97C1"/>
</svg>
