<svg width="51" height="50" viewBox="0 0 51 50" fill="none" xmlns="http://www.w3.org/2000/svg">
<g clip-path="url(#clip0_1227_2880)">
<path d="M33.259 0H17.9105C3.9043 0 0.583984 3.32031 0.583984 17.3266V32.675C0.583984 46.6812 3.9043 50.0015 17.9105 50.0015H33.259C47.2652 50.0015 50.5855 46.6812 50.5855 32.675V17.3266C50.5855 3.32031 47.2324 0 33.259 0ZM40.9496 35.6687H37.3199C35.9449 35.6687 35.5215 34.5781 33.048 32.0719C30.8996 29.9891 29.948 29.7125 29.4183 29.7125C28.6699 29.7125 28.4574 29.9234 28.4574 30.95V34.2297C28.4574 35.1094 28.1808 35.6375 25.8527 35.6375C22.0027 35.6375 17.7309 33.3094 14.7355 28.9719C10.2184 22.6156 8.98242 17.8547 8.98242 16.8703C8.98242 16.3406 9.19335 15.8453 10.2105 15.8453H13.848C14.7684 15.8453 15.1184 16.2687 15.4762 17.2531C17.2746 22.4453 20.2699 26.9937 21.5058 26.9937C21.9621 26.9937 22.173 26.7828 22.173 25.6187V20.2562C22.034 17.7828 20.7324 17.5703 20.7324 16.6922C20.7324 16.2687 21.0824 15.8453 21.6434 15.8453H27.3637C28.1371 15.8453 28.4215 16.2687 28.4215 17.1797V24.4141C28.4215 25.1953 28.7715 25.4719 28.9824 25.4719C29.4387 25.4719 29.8293 25.1953 30.6746 24.3484C33.2871 21.4187 35.159 16.9016 35.159 16.9016C35.4027 16.3719 35.8262 15.8766 36.7465 15.8766H40.384C41.4746 15.8766 41.7183 16.4375 41.4746 17.2187C41.0183 19.3344 36.5668 25.6172 36.5668 25.6172C36.184 26.2516 36.0371 26.5281 36.5668 27.2359C36.9574 27.7656 38.2277 28.8641 39.073 29.8484C40.6277 31.6141 41.823 33.0953 42.1418 34.1203C42.4996 35.1375 41.9715 35.6672 40.9449 35.6672L40.9496 35.6687Z" fill="#1D97C1"/>
</g>
<defs>
<clipPath id="clip0_1227_2880">
<rect width="50" height="50" fill="white" transform="translate(0.584961)"/>
</clipPath>
</defs>
</svg>
