<svg width="51" height="50" viewBox="0 0 51 50" fill="none" xmlns="http://www.w3.org/2000/svg">
<g clip-path="url(#clip0_1227_2882)">
<path d="M9.71466 0C4.65721 0 0.584961 4.07225 0.584961 9.1297V40.8704C0.584961 45.9278 4.65721 50.0001 9.71466 50.0001H26.9178V30.4532H21.7491V23.4157H26.9178V17.4032C26.9178 12.6794 29.9718 8.3422 37.0069 8.3422C39.8553 8.3422 41.9616 8.61565 41.9616 8.61565L41.7959 15.1876C41.7959 15.1876 39.6478 15.1673 37.3037 15.1673C34.7668 15.1673 34.36 16.3362 34.36 18.2767V23.4157H41.9975L41.6647 30.4532H34.36V50.0001H41.4553C46.5127 50.0001 50.585 45.9279 50.585 40.8704V9.12975C50.585 4.0723 46.5127 5e-05 41.4553 5e-05H9.71461L9.71466 0Z" fill="#1D97C1"/>
</g>
<defs>
<clipPath id="clip0_1227_2882">
<rect width="50" height="50" fill="white" transform="translate(0.584961)"/>
</clipPath>
</defs>
</svg>
