<svg width="51" height="50" viewBox="0 0 51 50" fill="none" xmlns="http://www.w3.org/2000/svg">
<g clip-path="url(#clip0_1227_2876)">
<path d="M25.5782 16.6628C20.9877 16.6628 17.2415 20.409 17.2415 24.9995C17.2415 29.59 20.9877 33.3363 25.5782 33.3363C30.1688 33.3363 33.915 29.59 33.915 24.9995C33.915 20.409 30.1688 16.6628 25.5782 16.6628ZM50.5822 24.9995C50.5822 21.5473 50.6134 18.1263 50.4196 14.6803C50.2257 10.6776 49.3126 7.12529 46.3857 4.19837C43.4525 1.26519 39.9064 0.358344 35.9038 0.164467C32.4515 -0.0294104 29.0305 0.00186025 25.5845 0.00186025C22.1322 0.00186025 18.7112 -0.0294104 15.2652 0.164467C11.2626 0.358344 7.71025 1.27144 4.78333 4.19837C1.85015 7.13154 0.943305 10.6776 0.749428 14.6803C0.555551 18.1325 0.586821 21.5535 0.586821 24.9995C0.586821 28.4455 0.555551 31.8728 0.749428 35.3188C0.943305 39.3214 1.85641 42.8738 4.78333 45.8007C7.71651 48.7339 11.2626 49.6407 15.2652 49.8346C18.7175 50.0285 22.1385 49.9972 25.5845 49.9972C29.0368 49.9972 32.4578 50.0285 35.9038 49.8346C39.9064 49.6407 43.4587 48.7276 46.3857 45.8007C49.3188 42.8675 50.2257 39.3214 50.4196 35.3188C50.6197 31.8728 50.5822 28.4518 50.5822 24.9995ZM25.5782 37.8267C18.4798 37.8267 12.7511 32.0979 12.7511 24.9995C12.7511 17.9011 18.4798 12.1724 25.5782 12.1724C32.6767 12.1724 38.4054 17.9011 38.4054 24.9995C38.4054 32.0979 32.6767 37.8267 25.5782 37.8267ZM38.9308 14.6427C37.2734 14.6427 35.935 13.3043 35.935 11.647C35.935 9.98967 37.2734 8.65129 38.9308 8.65129C40.5881 8.65129 41.9265 9.98967 41.9265 11.647C41.927 12.0406 41.8498 12.4303 41.6995 12.794C41.5491 13.1577 41.3284 13.4881 41.0502 13.7664C40.7719 14.0447 40.4414 14.2653 40.0778 14.4157C39.7141 14.5661 39.3243 14.6432 38.9308 14.6427Z" fill="#1D97C1"/>
</g>
<defs>
<clipPath id="clip0_1227_2876">
<rect width="50" height="50" fill="white" transform="translate(0.584961)"/>
</clipPath>
</defs>
</svg>
