<svg width="2006" height="207" viewBox="0 0 2006 207" fill="none" xmlns="http://www.w3.org/2000/svg">
<path d="M1082 207C503.464 72.7482 250.58 58.9902 0 207V179.353C255.052 45.6331 500.108 52.2954 1082 179.353V207Z" fill="#D8F6FE" fill-opacity="0.38"/>
<path d="M2010 207C1514.34 72.7482 1297.68 58.9902 1083 207V179.353C1301.52 45.6331 1511.47 52.2954 2010 179.353V207Z" fill="#D8F6FE" fill-opacity="0.38"/>
<path d="M1082 167.011C503.464 32.7595 250.58 19.0016 0 167.011V139.364C255.052 5.64449 500.108 12.3068 1082 139.364V167.011Z" fill="#D8F6FE" fill-opacity="0.38"/>
<path d="M2010 167C1513.81 33.2346 1296.91 19.5265 1082 167V139.453C1300.75 6.21777 1510.93 12.8559 2010 139.453V167Z" fill="#D8F6FE" fill-opacity="0.38"/>
<path d="M1077 125.455C501.137 -8.79728 249.422 -22.5552 0 125.455V97.8074C253.874 -35.9123 497.797 -29.25 1077 97.8074V125.455Z" fill="#D8F6FE" fill-opacity="0.38"/>
<path d="M2010 125C1511.13 -8.7654 1293.07 -22.4735 1077 125V97.453C1296.93 -35.7822 1508.24 -29.1441 2010 97.453V125Z" fill="#D8F6FE" fill-opacity="0.38"/>
</svg>
