<svg width="2010" height="264" viewBox="0 0 2010 264" fill="none" xmlns="http://www.w3.org/2000/svg">
<path d="M928 0C1506.54 171.22 1759.42 188.766 2010 0V35.2602C1754.95 205.801 1509.89 197.304 928 35.2602V0Z" fill="#D8F6FE" fill-opacity="0.38"/>
<path d="M0 0C495.659 171.22 712.317 188.766 927 0V35.2602C708.485 205.801 498.534 197.304 0 35.2602V0Z" fill="#D8F6FE" fill-opacity="0.38"/>
<path d="M928 51C1506.54 222.22 1759.42 239.766 2010 51V86.2602C1754.95 256.801 1509.89 248.304 928 86.2602V51Z" fill="#D8F6FE" fill-opacity="0.38"/>
<path d="M0 51C495.659 222.22 712.317 239.766 927 51V86.2602C708.485 256.801 498.534 248.304 0 86.2602V51Z" fill="#D8F6FE" fill-opacity="0.38"/>
<path d="M933 104C1508.86 275.22 1760.58 292.766 2010 104V139.26C1756.13 309.801 1512.2 301.304 933 139.26V104Z" fill="#D8F6FE" fill-opacity="0.38"/>
<path d="M0 104C497.798 275.22 715.39 292.766 931 104V139.26C711.542 309.801 500.685 301.304 0 139.26V104Z" fill="#D8F6FE" fill-opacity="0.38"/>
</svg>
